<svg xmlns="http://www.w3.org/2000/svg" width="360" height="560" viewBox="0 0 360 560" role="img" aria-labelledby="title desc">
<title id="title">dsh-TUI terminal preview</title>
<desc id="desc">Reflowed recorded welcome, completion, help highlights and typing. Full help text is in the README preview details. No model request was submitted.</desc>
<metadata>{&quot;sourceCommit&quot;:&quot;2f01491dab4c54491ad77f8205e0c213ec217939&quot;,&quot;sourceCapture&quot;:{&quot;versions&quot;:{&quot;dsh&quot;:&quot;0.1.5-rc.1&quot;,&quot;tui&quot;:&quot;0.10.2&quot;,&quot;xterm&quot;:&quot;6.0.0&quot;,&quot;pty&quot;:&quot;1.2.0-beta.15&quot;},&quot;cols&quot;:110,&quot;rows&quot;:42,&quot;ansiSha256&quot;:&quot;3af33b916d543a79fa8f044b4313ed67a4a8a1fd201929f9fa233e79d65f2d10&quot;},&quot;layout&quot;:&quot;reflowed recorded terminal highlights; full help in README preview details&quot;,&quot;duration&quot;:11040,&quot;whaleDuration&quot;:4400,&quot;typingInterval&quot;:70}</metadata>
<style>
svg{--bg:#ffffff;--fg:#20242b;--muted:#626b78;--line:#dce1e8;--accent:#365fc0;--field:#f7f9fc;--green:#267a59}
text{font-family:Consolas,"Microsoft YaHei",monospace;fill:var(--fg);letter-spacing:0;font-variant-ligatures:none}
.muted{fill:var(--muted)}.accent{fill:var(--accent)}.strong{font-weight:700}.rule{stroke:var(--line);stroke-width:1}
.scene,.pet{visibility:hidden}.cursor{fill:var(--accent)}
@media(prefers-color-scheme:dark){svg{--bg:#111316;--fg:#ebedf0;--muted:#a8afb9;--line:#34383f;--accent:#91b2ff;--field:#191c21;--green:#83d8b2}}
.scene-0{animation:scene0 11040ms step-end infinite}@keyframes scene0{ 0.00000000%{visibility:visible}16.30434783%{visibility:hidden}}
.scene-1{animation:scene1 11040ms step-end infinite}@keyframes scene1{0%{visibility:hidden} 16.30434783%{visibility:visible}30.79710145%{visibility:hidden}}
.scene-2{animation:scene2 11040ms step-end infinite}@keyframes scene2{0%{visibility:hidden} 30.79710145%{visibility:visible}31.43115942%{visibility:hidden}}
.scene-3{animation:scene3 11040ms step-end infinite}@keyframes scene3{0%{visibility:hidden} 31.43115942%{visibility:visible}32.06521739%{visibility:hidden}}
.scene-4{animation:scene4 11040ms step-end infinite}@keyframes scene4{0%{visibility:hidden} 32.06521739%{visibility:visible}32.69927536%{visibility:hidden}}
.scene-5{animation:scene5 11040ms step-end infinite}@keyframes scene5{0%{visibility:hidden} 32.69927536%{visibility:visible}39.03985507%{visibility:hidden}}
.scene-6{animation:scene6 11040ms step-end infinite}@keyframes scene6{0%{visibility:hidden} 39.03985507%{visibility:visible}57.15579710%{visibility:hidden}}
.scene-7{animation:scene7 11040ms step-end infinite}@keyframes scene7{0%{visibility:hidden} 57.15579710%{visibility:visible}75.27173913%{visibility:hidden}}
.scene-8{animation:scene8 11040ms step-end infinite}@keyframes scene8{0%{visibility:hidden} 75.27173913%{visibility:visible}75.90579710%{visibility:hidden}}
.scene-9{animation:scene9 11040ms step-end infinite}@keyframes scene9{0%{visibility:hidden} 75.90579710%{visibility:visible}76.53985507%{visibility:hidden}}
.scene-10{animation:scene10 11040ms step-end infinite}@keyframes scene10{0%{visibility:hidden} 76.53985507%{visibility:visible}77.17391304%{visibility:hidden}}
.scene-11{animation:scene11 11040ms step-end infinite}@keyframes scene11{0%{visibility:hidden} 77.17391304%{visibility:visible}77.80797101%{visibility:hidden}}
.scene-12{animation:scene12 11040ms step-end infinite}@keyframes scene12{0%{visibility:hidden} 77.80797101%{visibility:visible}78.44202899%{visibility:hidden}}
.scene-13{animation:scene13 11040ms step-end infinite}@keyframes scene13{0%{visibility:hidden} 78.44202899%{visibility:visible}79.07608696%{visibility:hidden}}
.scene-14{animation:scene14 11040ms step-end infinite}@keyframes scene14{0%{visibility:hidden} 79.07608696%{visibility:visible}79.71014493%{visibility:hidden}}
.scene-15{animation:scene15 11040ms step-end infinite}@keyframes scene15{0%{visibility:hidden} 79.71014493%{visibility:visible}80.34420290%{visibility:hidden}}
.scene-16{animation:scene16 11040ms step-end infinite}@keyframes scene16{0%{visibility:hidden} 80.34420290%{visibility:visible}80.97826087%{visibility:hidden}}
.scene-17{animation:scene17 11040ms step-end infinite}@keyframes scene17{0%{visibility:hidden} 80.97826087%{visibility:visible}81.61231884%{visibility:hidden}}
.scene-18{animation:scene18 11040ms step-end infinite}@keyframes scene18{0%{visibility:hidden} 81.61231884%{visibility:visible}82.24637681%{visibility:hidden}}
.scene-19{animation:scene19 11040ms step-end infinite}@keyframes scene19{0%{visibility:hidden} 82.24637681%{visibility:visible}82.88043478%{visibility:hidden}}
.scene-20{animation:scene20 11040ms step-end infinite}@keyframes scene20{0%{visibility:hidden} 82.88043478%{visibility:visible}83.51449275%{visibility:hidden}}
.scene-21{animation:scene21 11040ms step-end infinite}@keyframes scene21{0%{visibility:hidden} 83.51449275%{visibility:visible}84.14855072%{visibility:hidden}}
.scene-22{animation:scene22 11040ms step-end infinite}@keyframes scene22{0%{visibility:hidden} 84.14855072%{visibility:visible}84.78260870%{visibility:hidden}}
.scene-23{animation:scene23 11040ms step-end infinite}@keyframes scene23{0%{visibility:hidden} 84.78260870%{visibility:visible}85.41666667%{visibility:hidden}}
.scene-24{animation:scene24 11040ms step-end infinite}@keyframes scene24{0%{visibility:hidden} 85.41666667%{visibility:visible}86.05072464%{visibility:hidden}}
.scene-25{animation:scene25 11040ms step-end infinite}@keyframes scene25{0%{visibility:hidden} 86.05072464%{visibility:visible}86.68478261%{visibility:hidden}}
.scene-26{animation:scene26 11040ms step-end infinite}@keyframes scene26{0%{visibility:hidden} 86.68478261%{visibility:visible}87.31884058%{visibility:hidden}}
.scene-27{animation:scene27 11040ms step-end infinite}@keyframes scene27{0%{visibility:hidden} 87.31884058%{visibility:visible}100.00000000%{visibility:hidden}}
.pet-0{animation:pet0 4400ms step-end infinite}@keyframes pet0{0.0000%{visibility:visible}6.2500%{visibility:hidden}12.5000%{visibility:visible}18.7500%{visibility:hidden}25.0000%{visibility:hidden}31.2500%{visibility:hidden}37.5000%{visibility:visible}43.7500%{visibility:hidden}50.0000%{visibility:hidden}56.2500%{visibility:hidden}62.5000%{visibility:hidden}68.7500%{visibility:hidden}75.0000%{visibility:hidden}81.2500%{visibility:hidden}87.5000%{visibility:visible}93.7500%{visibility:visible}100%{visibility:visible}}
.pet-1{animation:pet1 4400ms step-end infinite}@keyframes pet1{0.0000%{visibility:hidden}6.2500%{visibility:visible}12.5000%{visibility:hidden}18.7500%{visibility:hidden}25.0000%{visibility:hidden}31.2500%{visibility:hidden}37.5000%{visibility:hidden}43.7500%{visibility:hidden}50.0000%{visibility:hidden}56.2500%{visibility:hidden}62.5000%{visibility:hidden}68.7500%{visibility:hidden}75.0000%{visibility:hidden}81.2500%{visibility:hidden}87.5000%{visibility:hidden}93.7500%{visibility:hidden}100%{visibility:hidden}}
.pet-2{animation:pet2 4400ms step-end infinite}@keyframes pet2{0.0000%{visibility:hidden}6.2500%{visibility:hidden}12.5000%{visibility:hidden}18.7500%{visibility:visible}25.0000%{visibility:hidden}31.2500%{visibility:visible}37.5000%{visibility:hidden}43.7500%{visibility:hidden}50.0000%{visibility:hidden}56.2500%{visibility:hidden}62.5000%{visibility:hidden}68.7500%{visibility:hidden}75.0000%{visibility:hidden}81.2500%{visibility:hidden}87.5000%{visibility:hidden}93.7500%{visibility:hidden}100%{visibility:hidden}}
.pet-3{animation:pet3 4400ms step-end infinite}@keyframes pet3{0.0000%{visibility:hidden}6.2500%{visibility:hidden}12.5000%{visibility:hidden}18.7500%{visibility:hidden}25.0000%{visibility:visible}31.2500%{visibility:hidden}37.5000%{visibility:hidden}43.7500%{visibility:hidden}50.0000%{visibility:hidden}56.2500%{visibility:hidden}62.5000%{visibility:hidden}68.7500%{visibility:hidden}75.0000%{visibility:hidden}81.2500%{visibility:hidden}87.5000%{visibility:hidden}93.7500%{visibility:hidden}100%{visibility:hidden}}
.pet-10{animation:pet10 4400ms step-end infinite}@keyframes pet10{0.0000%{visibility:hidden}6.2500%{visibility:hidden}12.5000%{visibility:hidden}18.7500%{visibility:hidden}25.0000%{visibility:hidden}31.2500%{visibility:hidden}37.5000%{visibility:hidden}43.7500%{visibility:visible}50.0000%{visibility:hidden}56.2500%{visibility:hidden}62.5000%{visibility:hidden}68.7500%{visibility:hidden}75.0000%{visibility:hidden}81.2500%{visibility:visible}87.5000%{visibility:hidden}93.7500%{visibility:hidden}100%{visibility:hidden}}
.pet-11{animation:pet11 4400ms step-end infinite}@keyframes pet11{0.0000%{visibility:hidden}6.2500%{visibility:hidden}12.5000%{visibility:hidden}18.7500%{visibility:hidden}25.0000%{visibility:hidden}31.2500%{visibility:hidden}37.5000%{visibility:hidden}43.7500%{visibility:hidden}50.0000%{visibility:visible}56.2500%{visibility:hidden}62.5000%{visibility:hidden}68.7500%{visibility:hidden}75.0000%{visibility:visible}81.2500%{visibility:hidden}87.5000%{visibility:hidden}93.7500%{visibility:hidden}100%{visibility:hidden}}
.pet-12{animation:pet12 4400ms step-end infinite}@keyframes pet12{0.0000%{visibility:hidden}6.2500%{visibility:hidden}12.5000%{visibility:hidden}18.7500%{visibility:hidden}25.0000%{visibility:hidden}31.2500%{visibility:hidden}37.5000%{visibility:hidden}43.7500%{visibility:hidden}50.0000%{visibility:hidden}56.2500%{visibility:visible}62.5000%{visibility:hidden}68.7500%{visibility:visible}75.0000%{visibility:hidden}81.2500%{visibility:hidden}87.5000%{visibility:hidden}93.7500%{visibility:hidden}100%{visibility:hidden}}
.pet-13{animation:pet13 4400ms step-end infinite}@keyframes pet13{0.0000%{visibility:hidden}6.2500%{visibility:hidden}12.5000%{visibility:hidden}18.7500%{visibility:hidden}25.0000%{visibility:hidden}31.2500%{visibility:hidden}37.5000%{visibility:hidden}43.7500%{visibility:hidden}50.0000%{visibility:hidden}56.2500%{visibility:hidden}62.5000%{visibility:visible}68.7500%{visibility:hidden}75.0000%{visibility:hidden}81.2500%{visibility:hidden}87.5000%{visibility:hidden}93.7500%{visibility:hidden}100%{visibility:hidden}}
@media(prefers-reduced-motion:reduce){.scene,.pet{animation:none!important;visibility:hidden!important}.scene-0,.pet-0{visibility:visible!important}.cursor{display:none}}
</style>
<rect x=".5" y=".5" width="359" height="559" rx="8" fill="var(--bg)" stroke="var(--line)"/>
<g transform="translate(14 16) scale(1.95)" shape-rendering="crispEdges"><g class="pet pet-0" data-whale-frame="0" data-pose="standard"><path fill="#142660" d="M24 2h1v1h-1zM23 3h1v1h-1zM25 3h1v1h-1zM33 3h1v1h-1zM23 4h1v1h-1zM26 4h1v1h-1zM32 4h1v1h-1zM34 4h1v1h-1zM23 5h1v1h-1zM27 5h1v1h-1zM30 5h1v1h-1zM31 5h1v1h-1zM34 5h1v1h-1zM23 6h1v1h-1zM28 6h1v1h-1zM29 6h1v1h-1zM34 6h1v1h-1zM7 7h1v1h-1zM8 7h1v1h-1zM9 7h1v1h-1zM10 7h1v1h-1zM11 7h1v1h-1zM12 7h1v1h-1zM13 7h1v1h-1zM14 7h1v1h-1zM15 7h1v1h-1zM24 7h1v1h-1zM33 7h1v1h-1zM6 8h1v1h-1zM16 8h1v1h-1zM17 8h1v1h-1zM25 8h1v1h-1zM33 8h1v1h-1zM5 9h1v1h-1zM18 9h1v1h-1zM19 9h1v1h-1zM25 9h1v1h-1zM31 9h1v1h-1zM32 9h1v1h-1zM4 10h1v1h-1zM20 10h1v1h-1zM21 10h1v1h-1zM26 10h1v1h-1zM30 10h1v1h-1zM3 11h1v1h-1zM4 11h1v1h-1zM22 11h1v1h-1zM25 11h1v1h-1zM30 11h1v1h-1zM3 12h1v1h-1zM23 12h1v1h-1zM24 12h1v1h-1zM30 12h1v1h-1zM3 13h1v1h-1zM7 13h1v1h-1zM14 13h1v1h-1zM30 13h1v1h-1zM3 14h1v1h-1zM7 14h1v1h-1zM14 14h1v1h-1zM29 14h1v1h-1zM3 15h1v1h-1zM29 15h1v1h-1zM3 16h1v1h-1zM23 16h1v1h-1zM28 16h1v1h-1zM3 17h1v1h-1zM4 17h1v1h-1zM24 17h1v1h-1zM28 17h1v1h-1zM4 18h1v1h-1zM19 18h1v1h-1zM24 18h1v1h-1zM25 18h1v1h-1zM27 18h1v1h-1zM5 19h1v1h-1zM19 19h1v1h-1zM25 19h1v1h-1zM26 19h1v1h-1zM6 20h1v1h-1zM7 20h1v1h-1zM20 20h1v1h-1zM26 20h1v1h-1zM27 20h1v1h-1zM8 21h1v1h-1zM20 21h1v1h-1zM21 21h1v1h-1zM28 21h1v1h-1zM9 22h1v1h-1zM10 22h1v1h-1zM11 22h1v1h-1zM12 22h1v1h-1zM13 22h1v1h-1zM14 22h1v1h-1zM15 22h1v1h-1zM16 22h1v1h-1zM17 22h1v1h-1zM18 22h1v1h-1zM19 22h1v1h-1zM22 22h1v1h-1zM23 22h1v1h-1zM24 22h1v1h-1zM25 22h1v1h-1zM26 22h1v1h-1zM27 22h1v1h-1zM28 22h1v1h-1z"/><path fill="#4e6fff" d="M24 3h1v1h-1zM24 4h1v1h-1zM25 4h1v1h-1zM33 4h1v1h-1zM24 5h1v1h-1zM25 5h1v1h-1zM26 5h1v1h-1zM32 5h1v1h-1zM33 5h1v1h-1zM24 6h1v1h-1zM25 6h1v1h-1zM26 6h1v1h-1zM27 6h1v1h-1zM30 6h1v1h-1zM31 6h1v1h-1zM32 6h1v1h-1zM33 6h1v1h-1zM25 7h1v1h-1zM26 7h1v1h-1zM27 7h1v1h-1zM28 7h1v1h-1zM29 7h1v1h-1zM30 7h1v1h-1zM31 7h1v1h-1zM32 7h1v1h-1zM7 8h1v1h-1zM8 8h1v1h-1zM9 8h1v1h-1zM10 8h1v1h-1zM11 8h1v1h-1zM12 8h1v1h-1zM13 8h1v1h-1zM14 8h1v1h-1zM15 8h1v1h-1zM26 8h1v1h-1zM27 8h1v1h-1zM28 8h1v1h-1zM29 8h1v1h-1zM30 8h1v1h-1zM31 8h1v1h-1zM32 8h1v1h-1zM6 9h1v1h-1zM7 9h1v1h-1zM8 9h1v1h-1zM9 9h1v1h-1zM10 9h1v1h-1zM11 9h1v1h-1zM12 9h1v1h-1zM13 9h1v1h-1zM14 9h1v1h-1zM15 9h1v1h-1zM16 9h1v1h-1zM17 9h1v1h-1zM26 9h1v1h-1zM27 9h1v1h-1zM28 9h1v1h-1zM29 9h1v1h-1zM30 9h1v1h-1zM5 10h1v1h-1zM6 10h1v1h-1zM7 10h1v1h-1zM8 10h1v1h-1zM9 10h1v1h-1zM10 10h1v1h-1zM11 10h1v1h-1zM12 10h1v1h-1zM13 10h1v1h-1zM14 10h1v1h-1zM15 10h1v1h-1zM16 10h1v1h-1zM17 10h1v1h-1zM18 10h1v1h-1zM19 10h1v1h-1zM27 10h1v1h-1zM28 10h1v1h-1zM29 10h1v1h-1zM5 11h1v1h-1zM6 11h1v1h-1zM7 11h1v1h-1zM8 11h1v1h-1zM9 11h1v1h-1zM10 11h1v1h-1zM11 11h1v1h-1zM12 11h1v1h-1zM13 11h1v1h-1zM14 11h1v1h-1zM15 11h1v1h-1zM16 11h1v1h-1zM17 11h1v1h-1zM18 11h1v1h-1zM19 11h1v1h-1zM20 11h1v1h-1zM21 11h1v1h-1zM26 11h1v1h-1zM27 11h1v1h-1zM28 11h1v1h-1zM29 11h1v1h-1zM4 12h1v1h-1zM5 12h1v1h-1zM6 12h1v1h-1zM7 12h1v1h-1zM8 12h1v1h-1zM9 12h1v1h-1zM10 12h1v1h-1zM11 12h1v1h-1zM12 12h1v1h-1zM13 12h1v1h-1zM14 12h1v1h-1zM15 12h1v1h-1zM16 12h1v1h-1zM17 12h1v1h-1zM18 12h1v1h-1zM19 12h1v1h-1zM20 12h1v1h-1zM21 12h1v1h-1zM22 12h1v1h-1zM25 12h1v1h-1zM26 12h1v1h-1zM27 12h1v1h-1zM28 12h1v1h-1zM29 12h1v1h-1zM4 13h1v1h-1zM5 13h1v1h-1zM6 13h1v1h-1zM8 13h1v1h-1zM9 13h1v1h-1zM10 13h1v1h-1zM11 13h1v1h-1zM12 13h1v1h-1zM13 13h1v1h-1zM15 13h1v1h-1zM16 13h1v1h-1zM17 13h1v1h-1zM18 13h1v1h-1zM19 13h1v1h-1zM20 13h1v1h-1zM21 13h1v1h-1zM22 13h1v1h-1zM23 13h1v1h-1zM24 13h1v1h-1zM25 13h1v1h-1zM26 13h1v1h-1zM27 13h1v1h-1zM28 13h1v1h-1zM29 13h1v1h-1zM4 14h1v1h-1zM5 14h1v1h-1zM6 14h1v1h-1zM8 14h1v1h-1zM9 14h1v1h-1zM10 14h1v1h-1zM11 14h1v1h-1zM12 14h1v1h-1zM13 14h1v1h-1zM15 14h1v1h-1zM16 14h1v1h-1zM17 14h1v1h-1zM18 14h1v1h-1zM19 14h1v1h-1zM20 14h1v1h-1zM21 14h1v1h-1zM22 14h1v1h-1zM23 14h1v1h-1zM24 14h1v1h-1zM25 14h1v1h-1zM26 14h1v1h-1zM27 14h1v1h-1zM28 14h1v1h-1zM4 15h1v1h-1zM5 15h1v1h-1zM6 15h1v1h-1zM7 15h1v1h-1zM8 15h1v1h-1zM9 15h1v1h-1zM10 15h1v1h-1zM11 15h1v1h-1zM12 15h1v1h-1zM13 15h1v1h-1zM14 15h1v1h-1zM15 15h1v1h-1zM16 15h1v1h-1zM17 15h1v1h-1zM18 15h1v1h-1zM19 15h1v1h-1zM20 15h1v1h-1zM21 15h1v1h-1zM22 15h1v1h-1zM23 15h1v1h-1zM24 15h1v1h-1zM25 15h1v1h-1zM26 15h1v1h-1zM27 15h1v1h-1zM28 15h1v1h-1zM4 16h1v1h-1zM5 16h1v1h-1zM6 16h1v1h-1zM7 16h1v1h-1zM15 16h1v1h-1zM16 16h1v1h-1zM17 16h1v1h-1zM18 16h1v1h-1zM19 16h1v1h-1zM20 16h1v1h-1zM21 16h1v1h-1zM22 16h1v1h-1zM24 16h1v1h-1zM25 16h1v1h-1zM26 16h1v1h-1zM27 16h1v1h-1zM5 17h1v1h-1zM18 17h1v1h-1zM19 17h1v1h-1zM20 17h1v1h-1zM21 17h1v1h-1zM22 17h1v1h-1zM23 17h1v1h-1zM25 17h1v1h-1zM26 17h1v1h-1zM27 17h1v1h-1zM20 18h1v1h-1zM21 18h1v1h-1zM22 18h1v1h-1zM23 18h1v1h-1zM26 18h1v1h-1zM20 19h1v1h-1zM21 19h1v1h-1zM22 19h1v1h-1zM23 19h1v1h-1zM24 19h1v1h-1zM21 20h1v1h-1zM22 20h1v1h-1zM23 20h1v1h-1zM24 20h1v1h-1zM25 20h1v1h-1zM22 21h1v1h-1zM23 21h1v1h-1zM24 21h1v1h-1zM25 21h1v1h-1zM26 21h1v1h-1zM27 21h1v1h-1z"/><path fill="#bee1ff" d="M5 18h1v1h-1zM6 18h1v1h-1zM6 19h1v1h-1zM7 19h1v1h-1zM8 19h1v1h-1zM8 20h1v1h-1zM9 20h1v1h-1zM10 20h1v1h-1zM17 20h1v1h-1zM18 20h1v1h-1zM19 20h1v1h-1zM9 21h1v1h-1zM10 21h1v1h-1zM11 21h1v1h-1zM12 21h1v1h-1zM13 21h1v1h-1zM14 21h1v1h-1zM15 21h1v1h-1zM16 21h1v1h-1zM17 21h1v1h-1zM18 21h1v1h-1zM19 21h1v1h-1z"/><path fill="#ffffff" d="M8 16h1v1h-1zM9 16h1v1h-1zM10 16h1v1h-1zM11 16h1v1h-1zM12 16h1v1h-1zM13 16h1v1h-1zM14 16h1v1h-1zM6 17h1v1h-1zM7 17h1v1h-1zM8 17h1v1h-1zM9 17h1v1h-1zM10 17h1v1h-1zM11 17h1v1h-1zM12 17h1v1h-1zM13 17h1v1h-1zM14 17h1v1h-1zM15 17h1v1h-1zM16 17h1v1h-1zM17 17h1v1h-1zM7 18h1v1h-1zM8 18h1v1h-1zM9 18h1v1h-1zM10 18h1v1h-1zM11 18h1v1h-1zM12 18h1v1h-1zM13 18h1v1h-1zM14 18h1v1h-1zM15 18h1v1h-1zM16 18h1v1h-1zM17 18h1v1h-1zM18 18h1v1h-1zM9 19h1v1h-1zM10 19h1v1h-1zM11 19h1v1h-1zM12 19h1v1h-1zM13 19h1v1h-1zM14 19h1v1h-1zM15 19h1v1h-1zM16 19h1v1h-1zM17 19h1v1h-1zM18 19h1v1h-1zM11 20h1v1h-1zM12 20h1v1h-1zM13 20h1v1h-1zM14 20h1v1h-1zM15 20h1v1h-1zM16 20h1v1h-1z"/></g><g class="pet pet-1" data-whale-frame="1" data-pose="blink"><path fill="#142660" d="M24 2h1v1h-1zM23 3h1v1h-1zM25 3h1v1h-1zM33 3h1v1h-1zM23 4h1v1h-1zM26 4h1v1h-1zM32 4h1v1h-1zM34 4h1v1h-1zM23 5h1v1h-1zM27 5h1v1h-1zM30 5h1v1h-1zM31 5h1v1h-1zM34 5h1v1h-1zM23 6h1v1h-1zM28 6h1v1h-1zM29 6h1v1h-1zM34 6h1v1h-1zM7 7h1v1h-1zM8 7h1v1h-1zM9 7h1v1h-1zM10 7h1v1h-1zM11 7h1v1h-1zM12 7h1v1h-1zM13 7h1v1h-1zM14 7h1v1h-1zM15 7h1v1h-1zM24 7h1v1h-1zM33 7h1v1h-1zM6 8h1v1h-1zM16 8h1v1h-1zM17 8h1v1h-1zM25 8h1v1h-1zM33 8h1v1h-1zM5 9h1v1h-1zM18 9h1v1h-1zM19 9h1v1h-1zM25 9h1v1h-1zM31 9h1v1h-1zM32 9h1v1h-1zM4 10h1v1h-1zM20 10h1v1h-1zM21 10h1v1h-1zM26 10h1v1h-1zM30 10h1v1h-1zM3 11h1v1h-1zM4 11h1v1h-1zM22 11h1v1h-1zM25 11h1v1h-1zM30 11h1v1h-1zM3 12h1v1h-1zM23 12h1v1h-1zM24 12h1v1h-1zM30 12h1v1h-1zM3 13h1v1h-1zM7 13h1v1h-1zM14 13h1v1h-1zM30 13h1v1h-1zM3 14h1v1h-1zM29 14h1v1h-1zM3 15h1v1h-1zM29 15h1v1h-1zM3 16h1v1h-1zM23 16h1v1h-1zM28 16h1v1h-1zM3 17h1v1h-1zM4 17h1v1h-1zM24 17h1v1h-1zM28 17h1v1h-1zM4 18h1v1h-1zM19 18h1v1h-1zM24 18h1v1h-1zM25 18h1v1h-1zM27 18h1v1h-1zM5 19h1v1h-1zM19 19h1v1h-1zM25 19h1v1h-1zM26 19h1v1h-1zM6 20h1v1h-1zM7 20h1v1h-1zM20 20h1v1h-1zM26 20h1v1h-1zM27 20h1v1h-1zM8 21h1v1h-1zM20 21h1v1h-1zM21 21h1v1h-1zM28 21h1v1h-1zM9 22h1v1h-1zM10 22h1v1h-1zM11 22h1v1h-1zM12 22h1v1h-1zM13 22h1v1h-1zM14 22h1v1h-1zM15 22h1v1h-1zM16 22h1v1h-1zM17 22h1v1h-1zM18 22h1v1h-1zM19 22h1v1h-1zM22 22h1v1h-1zM23 22h1v1h-1zM24 22h1v1h-1zM25 22h1v1h-1zM26 22h1v1h-1zM27 22h1v1h-1zM28 22h1v1h-1z"/><path fill="#4e6fff" d="M24 3h1v1h-1zM24 4h1v1h-1zM25 4h1v1h-1zM33 4h1v1h-1zM24 5h1v1h-1zM25 5h1v1h-1zM26 5h1v1h-1zM32 5h1v1h-1zM33 5h1v1h-1zM24 6h1v1h-1zM25 6h1v1h-1zM26 6h1v1h-1zM27 6h1v1h-1zM30 6h1v1h-1zM31 6h1v1h-1zM32 6h1v1h-1zM33 6h1v1h-1zM25 7h1v1h-1zM26 7h1v1h-1zM27 7h1v1h-1zM28 7h1v1h-1zM29 7h1v1h-1zM30 7h1v1h-1zM31 7h1v1h-1zM32 7h1v1h-1zM7 8h1v1h-1zM8 8h1v1h-1zM9 8h1v1h-1zM10 8h1v1h-1zM11 8h1v1h-1zM12 8h1v1h-1zM13 8h1v1h-1zM14 8h1v1h-1zM15 8h1v1h-1zM26 8h1v1h-1zM27 8h1v1h-1zM28 8h1v1h-1zM29 8h1v1h-1zM30 8h1v1h-1zM31 8h1v1h-1zM32 8h1v1h-1zM6 9h1v1h-1zM7 9h1v1h-1zM8 9h1v1h-1zM9 9h1v1h-1zM10 9h1v1h-1zM11 9h1v1h-1zM12 9h1v1h-1zM13 9h1v1h-1zM14 9h1v1h-1zM15 9h1v1h-1zM16 9h1v1h-1zM17 9h1v1h-1zM26 9h1v1h-1zM27 9h1v1h-1zM28 9h1v1h-1zM29 9h1v1h-1zM30 9h1v1h-1zM5 10h1v1h-1zM6 10h1v1h-1zM7 10h1v1h-1zM8 10h1v1h-1zM9 10h1v1h-1zM10 10h1v1h-1zM11 10h1v1h-1zM12 10h1v1h-1zM13 10h1v1h-1zM14 10h1v1h-1zM15 10h1v1h-1zM16 10h1v1h-1zM17 10h1v1h-1zM18 10h1v1h-1zM19 10h1v1h-1zM27 10h1v1h-1zM28 10h1v1h-1zM29 10h1v1h-1zM5 11h1v1h-1zM6 11h1v1h-1zM7 11h1v1h-1zM8 11h1v1h-1zM9 11h1v1h-1zM10 11h1v1h-1zM11 11h1v1h-1zM12 11h1v1h-1zM13 11h1v1h-1zM14 11h1v1h-1zM15 11h1v1h-1zM16 11h1v1h-1zM17 11h1v1h-1zM18 11h1v1h-1zM19 11h1v1h-1zM20 11h1v1h-1zM21 11h1v1h-1zM26 11h1v1h-1zM27 11h1v1h-1zM28 11h1v1h-1zM29 11h1v1h-1zM4 12h1v1h-1zM5 12h1v1h-1zM6 12h1v1h-1zM7 12h1v1h-1zM8 12h1v1h-1zM9 12h1v1h-1zM10 12h1v1h-1zM11 12h1v1h-1zM12 12h1v1h-1zM13 12h1v1h-1zM14 12h1v1h-1zM15 12h1v1h-1zM16 12h1v1h-1zM17 12h1v1h-1zM18 12h1v1h-1zM19 12h1v1h-1zM20 12h1v1h-1zM21 12h1v1h-1zM22 12h1v1h-1zM25 12h1v1h-1zM26 12h1v1h-1zM27 12h1v1h-1zM28 12h1v1h-1zM29 12h1v1h-1zM4 13h1v1h-1zM5 13h1v1h-1zM6 13h1v1h-1zM8 13h1v1h-1zM9 13h1v1h-1zM10 13h1v1h-1zM11 13h1v1h-1zM12 13h1v1h-1zM13 13h1v1h-1zM15 13h1v1h-1zM16 13h1v1h-1zM17 13h1v1h-1zM18 13h1v1h-1zM19 13h1v1h-1zM20 13h1v1h-1zM21 13h1v1h-1zM22 13h1v1h-1zM23 13h1v1h-1zM24 13h1v1h-1zM25 13h1v1h-1zM26 13h1v1h-1zM27 13h1v1h-1zM28 13h1v1h-1zM29 13h1v1h-1zM4 14h1v1h-1zM5 14h1v1h-1zM6 14h1v1h-1zM7 14h1v1h-1zM8 14h1v1h-1zM9 14h1v1h-1zM10 14h1v1h-1zM11 14h1v1h-1zM12 14h1v1h-1zM13 14h1v1h-1zM14 14h1v1h-1zM15 14h1v1h-1zM16 14h1v1h-1zM17 14h1v1h-1zM18 14h1v1h-1zM19 14h1v1h-1zM20 14h1v1h-1zM21 14h1v1h-1zM22 14h1v1h-1zM23 14h1v1h-1zM24 14h1v1h-1zM25 14h1v1h-1zM26 14h1v1h-1zM27 14h1v1h-1zM28 14h1v1h-1zM4 15h1v1h-1zM5 15h1v1h-1zM6 15h1v1h-1zM7 15h1v1h-1zM8 15h1v1h-1zM9 15h1v1h-1zM10 15h1v1h-1zM11 15h1v1h-1zM12 15h1v1h-1zM13 15h1v1h-1zM14 15h1v1h-1zM15 15h1v1h-1zM16 15h1v1h-1zM17 15h1v1h-1zM18 15h1v1h-1zM19 15h1v1h-1zM20 15h1v1h-1zM21 15h1v1h-1zM22 15h1v1h-1zM23 15h1v1h-1zM24 15h1v1h-1zM25 15h1v1h-1zM26 15h1v1h-1zM27 15h1v1h-1zM28 15h1v1h-1zM4 16h1v1h-1zM5 16h1v1h-1zM6 16h1v1h-1zM7 16h1v1h-1zM15 16h1v1h-1zM16 16h1v1h-1zM17 16h1v1h-1zM18 16h1v1h-1zM19 16h1v1h-1zM20 16h1v1h-1zM21 16h1v1h-1zM22 16h1v1h-1zM24 16h1v1h-1zM25 16h1v1h-1zM26 16h1v1h-1zM27 16h1v1h-1zM5 17h1v1h-1zM18 17h1v1h-1zM19 17h1v1h-1zM20 17h1v1h-1zM21 17h1v1h-1zM22 17h1v1h-1zM23 17h1v1h-1zM25 17h1v1h-1zM26 17h1v1h-1zM27 17h1v1h-1zM20 18h1v1h-1zM21 18h1v1h-1zM22 18h1v1h-1zM23 18h1v1h-1zM26 18h1v1h-1zM20 19h1v1h-1zM21 19h1v1h-1zM22 19h1v1h-1zM23 19h1v1h-1zM24 19h1v1h-1zM21 20h1v1h-1zM22 20h1v1h-1zM23 20h1v1h-1zM24 20h1v1h-1zM25 20h1v1h-1zM22 21h1v1h-1zM23 21h1v1h-1zM24 21h1v1h-1zM25 21h1v1h-1zM26 21h1v1h-1zM27 21h1v1h-1z"/><path fill="#bee1ff" d="M5 18h1v1h-1zM6 18h1v1h-1zM6 19h1v1h-1zM7 19h1v1h-1zM8 19h1v1h-1zM8 20h1v1h-1zM9 20h1v1h-1zM10 20h1v1h-1zM17 20h1v1h-1zM18 20h1v1h-1zM19 20h1v1h-1zM9 21h1v1h-1zM10 21h1v1h-1zM11 21h1v1h-1zM12 21h1v1h-1zM13 21h1v1h-1zM14 21h1v1h-1zM15 21h1v1h-1zM16 21h1v1h-1zM17 21h1v1h-1zM18 21h1v1h-1zM19 21h1v1h-1z"/><path fill="#ffffff" d="M8 16h1v1h-1zM9 16h1v1h-1zM10 16h1v1h-1zM11 16h1v1h-1zM12 16h1v1h-1zM13 16h1v1h-1zM14 16h1v1h-1zM6 17h1v1h-1zM7 17h1v1h-1zM8 17h1v1h-1zM9 17h1v1h-1zM10 17h1v1h-1zM11 17h1v1h-1zM12 17h1v1h-1zM13 17h1v1h-1zM14 17h1v1h-1zM15 17h1v1h-1zM16 17h1v1h-1zM17 17h1v1h-1zM7 18h1v1h-1zM8 18h1v1h-1zM9 18h1v1h-1zM10 18h1v1h-1zM11 18h1v1h-1zM12 18h1v1h-1zM13 18h1v1h-1zM14 18h1v1h-1zM15 18h1v1h-1zM16 18h1v1h-1zM17 18h1v1h-1zM18 18h1v1h-1zM9 19h1v1h-1zM10 19h1v1h-1zM11 19h1v1h-1zM12 19h1v1h-1zM13 19h1v1h-1zM14 19h1v1h-1zM15 19h1v1h-1zM16 19h1v1h-1zM17 19h1v1h-1zM18 19h1v1h-1zM11 20h1v1h-1zM12 20h1v1h-1zM13 20h1v1h-1zM14 20h1v1h-1zM15 20h1v1h-1zM16 20h1v1h-1z"/></g><g class="pet pet-2" data-whale-frame="2" data-pose="fin1"><path fill="#142660" d="M24 2h1v1h-1zM23 3h1v1h-1zM25 3h1v1h-1zM33 3h1v1h-1zM23 4h1v1h-1zM26 4h1v1h-1zM32 4h1v1h-1zM34 4h1v1h-1zM23 5h1v1h-1zM27 5h1v1h-1zM30 5h1v1h-1zM31 5h1v1h-1zM34 5h1v1h-1zM23 6h1v1h-1zM28 6h1v1h-1zM29 6h1v1h-1zM34 6h1v1h-1zM7 7h1v1h-1zM8 7h1v1h-1zM9 7h1v1h-1zM10 7h1v1h-1zM11 7h1v1h-1zM12 7h1v1h-1zM13 7h1v1h-1zM14 7h1v1h-1zM15 7h1v1h-1zM24 7h1v1h-1zM33 7h1v1h-1zM6 8h1v1h-1zM16 8h1v1h-1zM17 8h1v1h-1zM25 8h1v1h-1zM33 8h1v1h-1zM5 9h1v1h-1zM18 9h1v1h-1zM19 9h1v1h-1zM25 9h1v1h-1zM31 9h1v1h-1zM32 9h1v1h-1zM4 10h1v1h-1zM20 10h1v1h-1zM21 10h1v1h-1zM26 10h1v1h-1zM30 10h1v1h-1zM3 11h1v1h-1zM4 11h1v1h-1zM22 11h1v1h-1zM25 11h1v1h-1zM30 11h1v1h-1zM3 12h1v1h-1zM23 12h1v1h-1zM24 12h1v1h-1zM30 12h1v1h-1zM3 13h1v1h-1zM7 13h1v1h-1zM14 13h1v1h-1zM30 13h1v1h-1zM3 14h1v1h-1zM7 14h1v1h-1zM14 14h1v1h-1zM29 14h1v1h-1zM3 15h1v1h-1zM29 15h1v1h-1zM3 16h1v1h-1zM23 16h1v1h-1zM28 16h1v1h-1zM3 17h1v1h-1zM4 17h1v1h-1zM24 17h1v1h-1zM28 17h1v1h-1zM4 18h1v1h-1zM19 18h1v1h-1zM25 18h1v1h-1zM27 18h1v1h-1zM5 19h1v1h-1zM19 19h1v1h-1zM26 19h1v1h-1zM6 20h1v1h-1zM7 20h1v1h-1zM20 20h1v1h-1zM27 20h1v1h-1zM28 20h1v1h-1zM8 21h1v1h-1zM21 21h1v1h-1zM22 21h1v1h-1zM29 21h1v1h-1zM9 22h1v1h-1zM10 22h1v1h-1zM11 22h1v1h-1zM12 22h1v1h-1zM13 22h1v1h-1zM14 22h1v1h-1zM15 22h1v1h-1zM16 22h1v1h-1zM17 22h1v1h-1zM18 22h1v1h-1zM19 22h1v1h-1zM20 22h1v1h-1zM23 22h1v1h-1zM24 22h1v1h-1zM25 22h1v1h-1zM26 22h1v1h-1zM27 22h1v1h-1zM28 22h1v1h-1z"/><path fill="#4e6fff" d="M24 3h1v1h-1zM24 4h1v1h-1zM25 4h1v1h-1zM33 4h1v1h-1zM24 5h1v1h-1zM25 5h1v1h-1zM26 5h1v1h-1zM32 5h1v1h-1zM33 5h1v1h-1zM24 6h1v1h-1zM25 6h1v1h-1zM26 6h1v1h-1zM27 6h1v1h-1zM30 6h1v1h-1zM31 6h1v1h-1zM32 6h1v1h-1zM33 6h1v1h-1zM25 7h1v1h-1zM26 7h1v1h-1zM27 7h1v1h-1zM28 7h1v1h-1zM29 7h1v1h-1zM30 7h1v1h-1zM31 7h1v1h-1zM32 7h1v1h-1zM7 8h1v1h-1zM8 8h1v1h-1zM9 8h1v1h-1zM10 8h1v1h-1zM11 8h1v1h-1zM12 8h1v1h-1zM13 8h1v1h-1zM14 8h1v1h-1zM15 8h1v1h-1zM26 8h1v1h-1zM27 8h1v1h-1zM28 8h1v1h-1zM29 8h1v1h-1zM30 8h1v1h-1zM31 8h1v1h-1zM32 8h1v1h-1zM6 9h1v1h-1zM7 9h1v1h-1zM8 9h1v1h-1zM9 9h1v1h-1zM10 9h1v1h-1zM11 9h1v1h-1zM12 9h1v1h-1zM13 9h1v1h-1zM14 9h1v1h-1zM15 9h1v1h-1zM16 9h1v1h-1zM17 9h1v1h-1zM26 9h1v1h-1zM27 9h1v1h-1zM28 9h1v1h-1zM29 9h1v1h-1zM30 9h1v1h-1zM5 10h1v1h-1zM6 10h1v1h-1zM7 10h1v1h-1zM8 10h1v1h-1zM9 10h1v1h-1zM10 10h1v1h-1zM11 10h1v1h-1zM12 10h1v1h-1zM13 10h1v1h-1zM14 10h1v1h-1zM15 10h1v1h-1zM16 10h1v1h-1zM17 10h1v1h-1zM18 10h1v1h-1zM19 10h1v1h-1zM27 10h1v1h-1zM28 10h1v1h-1zM29 10h1v1h-1zM5 11h1v1h-1zM6 11h1v1h-1zM7 11h1v1h-1zM8 11h1v1h-1zM9 11h1v1h-1zM10 11h1v1h-1zM11 11h1v1h-1zM12 11h1v1h-1zM13 11h1v1h-1zM14 11h1v1h-1zM15 11h1v1h-1zM16 11h1v1h-1zM17 11h1v1h-1zM18 11h1v1h-1zM19 11h1v1h-1zM20 11h1v1h-1zM21 11h1v1h-1zM26 11h1v1h-1zM27 11h1v1h-1zM28 11h1v1h-1zM29 11h1v1h-1zM4 12h1v1h-1zM5 12h1v1h-1zM6 12h1v1h-1zM7 12h1v1h-1zM8 12h1v1h-1zM9 12h1v1h-1zM10 12h1v1h-1zM11 12h1v1h-1zM12 12h1v1h-1zM13 12h1v1h-1zM14 12h1v1h-1zM15 12h1v1h-1zM16 12h1v1h-1zM17 12h1v1h-1zM18 12h1v1h-1zM19 12h1v1h-1zM20 12h1v1h-1zM21 12h1v1h-1zM22 12h1v1h-1zM25 12h1v1h-1zM26 12h1v1h-1zM27 12h1v1h-1zM28 12h1v1h-1zM29 12h1v1h-1zM4 13h1v1h-1zM5 13h1v1h-1zM6 13h1v1h-1zM8 13h1v1h-1zM9 13h1v1h-1zM10 13h1v1h-1zM11 13h1v1h-1zM12 13h1v1h-1zM13 13h1v1h-1zM15 13h1v1h-1zM16 13h1v1h-1zM17 13h1v1h-1zM18 13h1v1h-1zM19 13h1v1h-1zM20 13h1v1h-1zM21 13h1v1h-1zM22 13h1v1h-1zM23 13h1v1h-1zM24 13h1v1h-1zM25 13h1v1h-1zM26 13h1v1h-1zM27 13h1v1h-1zM28 13h1v1h-1zM29 13h1v1h-1zM4 14h1v1h-1zM5 14h1v1h-1zM6 14h1v1h-1zM8 14h1v1h-1zM9 14h1v1h-1zM10 14h1v1h-1zM11 14h1v1h-1zM12 14h1v1h-1zM13 14h1v1h-1zM15 14h1v1h-1zM16 14h1v1h-1zM17 14h1v1h-1zM18 14h1v1h-1zM19 14h1v1h-1zM20 14h1v1h-1zM21 14h1v1h-1zM22 14h1v1h-1zM23 14h1v1h-1zM24 14h1v1h-1zM25 14h1v1h-1zM26 14h1v1h-1zM27 14h1v1h-1zM28 14h1v1h-1zM4 15h1v1h-1zM5 15h1v1h-1zM6 15h1v1h-1zM7 15h1v1h-1zM8 15h1v1h-1zM9 15h1v1h-1zM10 15h1v1h-1zM11 15h1v1h-1zM12 15h1v1h-1zM13 15h1v1h-1zM14 15h1v1h-1zM15 15h1v1h-1zM16 15h1v1h-1zM17 15h1v1h-1zM18 15h1v1h-1zM19 15h1v1h-1zM20 15h1v1h-1zM21 15h1v1h-1zM22 15h1v1h-1zM23 15h1v1h-1zM24 15h1v1h-1zM25 15h1v1h-1zM26 15h1v1h-1zM27 15h1v1h-1zM28 15h1v1h-1zM4 16h1v1h-1zM5 16h1v1h-1zM6 16h1v1h-1zM7 16h1v1h-1zM15 16h1v1h-1zM16 16h1v1h-1zM17 16h1v1h-1zM18 16h1v1h-1zM19 16h1v1h-1zM20 16h1v1h-1zM21 16h1v1h-1zM22 16h1v1h-1zM24 16h1v1h-1zM25 16h1v1h-1zM26 16h1v1h-1zM27 16h1v1h-1zM5 17h1v1h-1zM18 17h1v1h-1zM19 17h1v1h-1zM20 17h1v1h-1zM21 17h1v1h-1zM22 17h1v1h-1zM23 17h1v1h-1zM25 17h1v1h-1zM26 17h1v1h-1zM27 17h1v1h-1zM20 18h1v1h-1zM21 18h1v1h-1zM22 18h1v1h-1zM23 18h1v1h-1zM24 18h1v1h-1zM26 18h1v1h-1zM20 19h1v1h-1zM21 19h1v1h-1zM22 19h1v1h-1zM23 19h1v1h-1zM24 19h1v1h-1zM25 19h1v1h-1zM21 20h1v1h-1zM22 20h1v1h-1zM23 20h1v1h-1zM24 20h1v1h-1zM25 20h1v1h-1zM26 20h1v1h-1zM23 21h1v1h-1zM24 21h1v1h-1zM25 21h1v1h-1zM26 21h1v1h-1zM27 21h1v1h-1zM28 21h1v1h-1z"/><path fill="#bee1ff" d="M5 18h1v1h-1zM6 18h1v1h-1zM6 19h1v1h-1zM7 19h1v1h-1zM8 19h1v1h-1zM8 20h1v1h-1zM9 20h1v1h-1zM10 20h1v1h-1zM17 20h1v1h-1zM18 20h1v1h-1zM19 20h1v1h-1zM9 21h1v1h-1zM10 21h1v1h-1zM11 21h1v1h-1zM12 21h1v1h-1zM13 21h1v1h-1zM14 21h1v1h-1zM15 21h1v1h-1zM16 21h1v1h-1zM17 21h1v1h-1zM18 21h1v1h-1zM19 21h1v1h-1zM20 21h1v1h-1z"/><path fill="#ffffff" d="M8 16h1v1h-1zM9 16h1v1h-1zM10 16h1v1h-1zM11 16h1v1h-1zM12 16h1v1h-1zM13 16h1v1h-1zM14 16h1v1h-1zM6 17h1v1h-1zM7 17h1v1h-1zM8 17h1v1h-1zM9 17h1v1h-1zM10 17h1v1h-1zM11 17h1v1h-1zM12 17h1v1h-1zM13 17h1v1h-1zM14 17h1v1h-1zM15 17h1v1h-1zM16 17h1v1h-1zM17 17h1v1h-1zM7 18h1v1h-1zM8 18h1v1h-1zM9 18h1v1h-1zM10 18h1v1h-1zM11 18h1v1h-1zM12 18h1v1h-1zM13 18h1v1h-1zM14 18h1v1h-1zM15 18h1v1h-1zM16 18h1v1h-1zM17 18h1v1h-1zM18 18h1v1h-1zM9 19h1v1h-1zM10 19h1v1h-1zM11 19h1v1h-1zM12 19h1v1h-1zM13 19h1v1h-1zM14 19h1v1h-1zM15 19h1v1h-1zM16 19h1v1h-1zM17 19h1v1h-1zM18 19h1v1h-1zM11 20h1v1h-1zM12 20h1v1h-1zM13 20h1v1h-1zM14 20h1v1h-1zM15 20h1v1h-1zM16 20h1v1h-1z"/></g><g class="pet pet-3" data-whale-frame="3" data-pose="fin2"><path fill="#142660" d="M24 2h1v1h-1zM23 3h1v1h-1zM25 3h1v1h-1zM33 3h1v1h-1zM23 4h1v1h-1zM26 4h1v1h-1zM32 4h1v1h-1zM34 4h1v1h-1zM23 5h1v1h-1zM27 5h1v1h-1zM30 5h1v1h-1zM31 5h1v1h-1zM34 5h1v1h-1zM23 6h1v1h-1zM28 6h1v1h-1zM29 6h1v1h-1zM34 6h1v1h-1zM7 7h1v1h-1zM8 7h1v1h-1zM9 7h1v1h-1zM10 7h1v1h-1zM11 7h1v1h-1zM12 7h1v1h-1zM13 7h1v1h-1zM14 7h1v1h-1zM15 7h1v1h-1zM24 7h1v1h-1zM33 7h1v1h-1zM6 8h1v1h-1zM16 8h1v1h-1zM17 8h1v1h-1zM25 8h1v1h-1zM33 8h1v1h-1zM5 9h1v1h-1zM18 9h1v1h-1zM19 9h1v1h-1zM25 9h1v1h-1zM31 9h1v1h-1zM32 9h1v1h-1zM4 10h1v1h-1zM20 10h1v1h-1zM21 10h1v1h-1zM26 10h1v1h-1zM30 10h1v1h-1zM3 11h1v1h-1zM4 11h1v1h-1zM22 11h1v1h-1zM25 11h1v1h-1zM30 11h1v1h-1zM3 12h1v1h-1zM23 12h1v1h-1zM24 12h1v1h-1zM30 12h1v1h-1zM3 13h1v1h-1zM7 13h1v1h-1zM14 13h1v1h-1zM30 13h1v1h-1zM3 14h1v1h-1zM7 14h1v1h-1zM14 14h1v1h-1zM29 14h1v1h-1zM3 15h1v1h-1zM29 15h1v1h-1zM3 16h1v1h-1zM23 16h1v1h-1zM28 16h1v1h-1zM3 17h1v1h-1zM4 17h1v1h-1zM24 17h1v1h-1zM25 17h1v1h-1zM28 17h1v1h-1zM4 18h1v1h-1zM19 18h1v1h-1zM26 18h1v1h-1zM27 18h1v1h-1zM5 19h1v1h-1zM19 19h1v1h-1zM28 19h1v1h-1zM29 19h1v1h-1zM6 20h1v1h-1zM7 20h1v1h-1zM20 20h1v1h-1zM30 20h1v1h-1zM8 21h1v1h-1zM21 21h1v1h-1zM22 21h1v1h-1zM23 21h1v1h-1zM29 21h1v1h-1zM9 22h1v1h-1zM10 22h1v1h-1zM11 22h1v1h-1zM12 22h1v1h-1zM13 22h1v1h-1zM14 22h1v1h-1zM15 22h1v1h-1zM16 22h1v1h-1zM17 22h1v1h-1zM18 22h1v1h-1zM19 22h1v1h-1zM20 22h1v1h-1zM24 22h1v1h-1zM25 22h1v1h-1zM26 22h1v1h-1zM27 22h1v1h-1zM28 22h1v1h-1z"/><path fill="#4e6fff" d="M24 3h1v1h-1zM24 4h1v1h-1zM25 4h1v1h-1zM33 4h1v1h-1zM24 5h1v1h-1zM25 5h1v1h-1zM26 5h1v1h-1zM32 5h1v1h-1zM33 5h1v1h-1zM24 6h1v1h-1zM25 6h1v1h-1zM26 6h1v1h-1zM27 6h1v1h-1zM30 6h1v1h-1zM31 6h1v1h-1zM32 6h1v1h-1zM33 6h1v1h-1zM25 7h1v1h-1zM26 7h1v1h-1zM27 7h1v1h-1zM28 7h1v1h-1zM29 7h1v1h-1zM30 7h1v1h-1zM31 7h1v1h-1zM32 7h1v1h-1zM7 8h1v1h-1zM8 8h1v1h-1zM9 8h1v1h-1zM10 8h1v1h-1zM11 8h1v1h-1zM12 8h1v1h-1zM13 8h1v1h-1zM14 8h1v1h-1zM15 8h1v1h-1zM26 8h1v1h-1zM27 8h1v1h-1zM28 8h1v1h-1zM29 8h1v1h-1zM30 8h1v1h-1zM31 8h1v1h-1zM32 8h1v1h-1zM6 9h1v1h-1zM7 9h1v1h-1zM8 9h1v1h-1zM9 9h1v1h-1zM10 9h1v1h-1zM11 9h1v1h-1zM12 9h1v1h-1zM13 9h1v1h-1zM14 9h1v1h-1zM15 9h1v1h-1zM16 9h1v1h-1zM17 9h1v1h-1zM26 9h1v1h-1zM27 9h1v1h-1zM28 9h1v1h-1zM29 9h1v1h-1zM30 9h1v1h-1zM5 10h1v1h-1zM6 10h1v1h-1zM7 10h1v1h-1zM8 10h1v1h-1zM9 10h1v1h-1zM10 10h1v1h-1zM11 10h1v1h-1zM12 10h1v1h-1zM13 10h1v1h-1zM14 10h1v1h-1zM15 10h1v1h-1zM16 10h1v1h-1zM17 10h1v1h-1zM18 10h1v1h-1zM19 10h1v1h-1zM27 10h1v1h-1zM28 10h1v1h-1zM29 10h1v1h-1zM5 11h1v1h-1zM6 11h1v1h-1zM7 11h1v1h-1zM8 11h1v1h-1zM9 11h1v1h-1zM10 11h1v1h-1zM11 11h1v1h-1zM12 11h1v1h-1zM13 11h1v1h-1zM14 11h1v1h-1zM15 11h1v1h-1zM16 11h1v1h-1zM17 11h1v1h-1zM18 11h1v1h-1zM19 11h1v1h-1zM20 11h1v1h-1zM21 11h1v1h-1zM26 11h1v1h-1zM27 11h1v1h-1zM28 11h1v1h-1zM29 11h1v1h-1zM4 12h1v1h-1zM5 12h1v1h-1zM6 12h1v1h-1zM7 12h1v1h-1zM8 12h1v1h-1zM9 12h1v1h-1zM10 12h1v1h-1zM11 12h1v1h-1zM12 12h1v1h-1zM13 12h1v1h-1zM14 12h1v1h-1zM15 12h1v1h-1zM16 12h1v1h-1zM17 12h1v1h-1zM18 12h1v1h-1zM19 12h1v1h-1zM20 12h1v1h-1zM21 12h1v1h-1zM22 12h1v1h-1zM25 12h1v1h-1zM26 12h1v1h-1zM27 12h1v1h-1zM28 12h1v1h-1zM29 12h1v1h-1zM4 13h1v1h-1zM5 13h1v1h-1zM6 13h1v1h-1zM8 13h1v1h-1zM9 13h1v1h-1zM10 13h1v1h-1zM11 13h1v1h-1zM12 13h1v1h-1zM13 13h1v1h-1zM15 13h1v1h-1zM16 13h1v1h-1zM17 13h1v1h-1zM18 13h1v1h-1zM19 13h1v1h-1zM20 13h1v1h-1zM21 13h1v1h-1zM22 13h1v1h-1zM23 13h1v1h-1zM24 13h1v1h-1zM25 13h1v1h-1zM26 13h1v1h-1zM27 13h1v1h-1zM28 13h1v1h-1zM29 13h1v1h-1zM4 14h1v1h-1zM5 14h1v1h-1zM6 14h1v1h-1zM8 14h1v1h-1zM9 14h1v1h-1zM10 14h1v1h-1zM11 14h1v1h-1zM12 14h1v1h-1zM13 14h1v1h-1zM15 14h1v1h-1zM16 14h1v1h-1zM17 14h1v1h-1zM18 14h1v1h-1zM19 14h1v1h-1zM20 14h1v1h-1zM21 14h1v1h-1zM22 14h1v1h-1zM23 14h1v1h-1zM24 14h1v1h-1zM25 14h1v1h-1zM26 14h1v1h-1zM27 14h1v1h-1zM28 14h1v1h-1zM4 15h1v1h-1zM5 15h1v1h-1zM6 15h1v1h-1zM7 15h1v1h-1zM8 15h1v1h-1zM9 15h1v1h-1zM10 15h1v1h-1zM11 15h1v1h-1zM12 15h1v1h-1zM13 15h1v1h-1zM14 15h1v1h-1zM15 15h1v1h-1zM16 15h1v1h-1zM17 15h1v1h-1zM18 15h1v1h-1zM19 15h1v1h-1zM20 15h1v1h-1zM21 15h1v1h-1zM22 15h1v1h-1zM23 15h1v1h-1zM24 15h1v1h-1zM25 15h1v1h-1zM26 15h1v1h-1zM27 15h1v1h-1zM28 15h1v1h-1zM4 16h1v1h-1zM5 16h1v1h-1zM6 16h1v1h-1zM7 16h1v1h-1zM15 16h1v1h-1zM16 16h1v1h-1zM17 16h1v1h-1zM18 16h1v1h-1zM19 16h1v1h-1zM20 16h1v1h-1zM21 16h1v1h-1zM22 16h1v1h-1zM24 16h1v1h-1zM25 16h1v1h-1zM26 16h1v1h-1zM27 16h1v1h-1zM5 17h1v1h-1zM18 17h1v1h-1zM19 17h1v1h-1zM20 17h1v1h-1zM21 17h1v1h-1zM22 17h1v1h-1zM23 17h1v1h-1zM26 17h1v1h-1zM27 17h1v1h-1zM20 18h1v1h-1zM21 18h1v1h-1zM22 18h1v1h-1zM23 18h1v1h-1zM24 18h1v1h-1zM25 18h1v1h-1zM20 19h1v1h-1zM21 19h1v1h-1zM22 19h1v1h-1zM23 19h1v1h-1zM24 19h1v1h-1zM25 19h1v1h-1zM26 19h1v1h-1zM27 19h1v1h-1zM21 20h1v1h-1zM22 20h1v1h-1zM23 20h1v1h-1zM24 20h1v1h-1zM25 20h1v1h-1zM26 20h1v1h-1zM27 20h1v1h-1zM28 20h1v1h-1zM29 20h1v1h-1zM24 21h1v1h-1zM25 21h1v1h-1zM26 21h1v1h-1zM27 21h1v1h-1zM28 21h1v1h-1z"/><path fill="#bee1ff" d="M5 18h1v1h-1zM6 18h1v1h-1zM6 19h1v1h-1zM7 19h1v1h-1zM8 19h1v1h-1zM8 20h1v1h-1zM9 20h1v1h-1zM10 20h1v1h-1zM17 20h1v1h-1zM18 20h1v1h-1zM19 20h1v1h-1zM9 21h1v1h-1zM10 21h1v1h-1zM11 21h1v1h-1zM12 21h1v1h-1zM13 21h1v1h-1zM14 21h1v1h-1zM15 21h1v1h-1zM16 21h1v1h-1zM17 21h1v1h-1zM18 21h1v1h-1zM19 21h1v1h-1zM20 21h1v1h-1z"/><path fill="#ffffff" d="M8 16h1v1h-1zM9 16h1v1h-1zM10 16h1v1h-1zM11 16h1v1h-1zM12 16h1v1h-1zM13 16h1v1h-1zM14 16h1v1h-1zM6 17h1v1h-1zM7 17h1v1h-1zM8 17h1v1h-1zM9 17h1v1h-1zM10 17h1v1h-1zM11 17h1v1h-1zM12 17h1v1h-1zM13 17h1v1h-1zM14 17h1v1h-1zM15 17h1v1h-1zM16 17h1v1h-1zM17 17h1v1h-1zM7 18h1v1h-1zM8 18h1v1h-1zM9 18h1v1h-1zM10 18h1v1h-1zM11 18h1v1h-1zM12 18h1v1h-1zM13 18h1v1h-1zM14 18h1v1h-1zM15 18h1v1h-1zM16 18h1v1h-1zM17 18h1v1h-1zM18 18h1v1h-1zM9 19h1v1h-1zM10 19h1v1h-1zM11 19h1v1h-1zM12 19h1v1h-1zM13 19h1v1h-1zM14 19h1v1h-1zM15 19h1v1h-1zM16 19h1v1h-1zM17 19h1v1h-1zM18 19h1v1h-1zM11 20h1v1h-1zM12 20h1v1h-1zM13 20h1v1h-1zM14 20h1v1h-1zM15 20h1v1h-1zM16 20h1v1h-1z"/></g><g class="pet pet-10" data-whale-frame="10" data-pose="tail1"><path fill="#142660" d="M25 2h1v1h-1zM24 3h1v1h-1zM26 3h1v1h-1zM34 3h1v1h-1zM24 4h1v1h-1zM27 4h1v1h-1zM33 4h1v1h-1zM35 4h1v1h-1zM24 5h1v1h-1zM28 5h1v1h-1zM31 5h1v1h-1zM32 5h1v1h-1zM35 5h1v1h-1zM25 6h1v1h-1zM29 6h1v1h-1zM30 6h1v1h-1zM35 6h1v1h-1zM7 7h1v1h-1zM8 7h1v1h-1zM9 7h1v1h-1zM10 7h1v1h-1zM11 7h1v1h-1zM12 7h1v1h-1zM13 7h1v1h-1zM14 7h1v1h-1zM15 7h1v1h-1zM25 7h1v1h-1zM34 7h1v1h-1zM6 8h1v1h-1zM16 8h1v1h-1zM17 8h1v1h-1zM26 8h1v1h-1zM34 8h1v1h-1zM5 9h1v1h-1zM18 9h1v1h-1zM19 9h1v1h-1zM26 9h1v1h-1zM32 9h1v1h-1zM33 9h1v1h-1zM4 10h1v1h-1zM20 10h1v1h-1zM21 10h1v1h-1zM27 10h1v1h-1zM31 10h1v1h-1zM3 11h1v1h-1zM4 11h1v1h-1zM22 11h1v1h-1zM26 11h1v1h-1zM31 11h1v1h-1zM3 12h1v1h-1zM23 12h1v1h-1zM24 12h1v1h-1zM25 12h1v1h-1zM31 12h1v1h-1zM3 13h1v1h-1zM7 13h1v1h-1zM14 13h1v1h-1zM30 13h1v1h-1zM3 14h1v1h-1zM7 14h1v1h-1zM14 14h1v1h-1zM30 14h1v1h-1zM3 15h1v1h-1zM29 15h1v1h-1zM3 16h1v1h-1zM23 16h1v1h-1zM29 16h1v1h-1zM3 17h1v1h-1zM4 17h1v1h-1zM24 17h1v1h-1zM28 17h1v1h-1zM4 18h1v1h-1zM19 18h1v1h-1zM24 18h1v1h-1zM25 18h1v1h-1zM27 18h1v1h-1zM5 19h1v1h-1zM19 19h1v1h-1zM25 19h1v1h-1zM26 19h1v1h-1zM6 20h1v1h-1zM7 20h1v1h-1zM20 20h1v1h-1zM26 20h1v1h-1zM27 20h1v1h-1zM8 21h1v1h-1zM20 21h1v1h-1zM21 21h1v1h-1zM28 21h1v1h-1zM9 22h1v1h-1zM10 22h1v1h-1zM11 22h1v1h-1zM12 22h1v1h-1zM13 22h1v1h-1zM14 22h1v1h-1zM15 22h1v1h-1zM16 22h1v1h-1zM17 22h1v1h-1zM18 22h1v1h-1zM19 22h1v1h-1zM22 22h1v1h-1zM23 22h1v1h-1zM24 22h1v1h-1zM25 22h1v1h-1zM26 22h1v1h-1zM27 22h1v1h-1zM28 22h1v1h-1z"/><path fill="#4e6fff" d="M25 3h1v1h-1zM25 4h1v1h-1zM26 4h1v1h-1zM34 4h1v1h-1zM25 5h1v1h-1zM26 5h1v1h-1zM27 5h1v1h-1zM33 5h1v1h-1zM34 5h1v1h-1zM26 6h1v1h-1zM27 6h1v1h-1zM28 6h1v1h-1zM31 6h1v1h-1zM32 6h1v1h-1zM33 6h1v1h-1zM34 6h1v1h-1zM26 7h1v1h-1zM27 7h1v1h-1zM28 7h1v1h-1zM29 7h1v1h-1zM30 7h1v1h-1zM31 7h1v1h-1zM32 7h1v1h-1zM33 7h1v1h-1zM7 8h1v1h-1zM8 8h1v1h-1zM9 8h1v1h-1zM10 8h1v1h-1zM11 8h1v1h-1zM12 8h1v1h-1zM13 8h1v1h-1zM14 8h1v1h-1zM15 8h1v1h-1zM27 8h1v1h-1zM28 8h1v1h-1zM29 8h1v1h-1zM30 8h1v1h-1zM31 8h1v1h-1zM32 8h1v1h-1zM33 8h1v1h-1zM6 9h1v1h-1zM7 9h1v1h-1zM8 9h1v1h-1zM9 9h1v1h-1zM10 9h1v1h-1zM11 9h1v1h-1zM12 9h1v1h-1zM13 9h1v1h-1zM14 9h1v1h-1zM15 9h1v1h-1zM16 9h1v1h-1zM17 9h1v1h-1zM27 9h1v1h-1zM28 9h1v1h-1zM29 9h1v1h-1zM30 9h1v1h-1zM31 9h1v1h-1zM5 10h1v1h-1zM6 10h1v1h-1zM7 10h1v1h-1zM8 10h1v1h-1zM9 10h1v1h-1zM10 10h1v1h-1zM11 10h1v1h-1zM12 10h1v1h-1zM13 10h1v1h-1zM14 10h1v1h-1zM15 10h1v1h-1zM16 10h1v1h-1zM17 10h1v1h-1zM18 10h1v1h-1zM19 10h1v1h-1zM28 10h1v1h-1zM29 10h1v1h-1zM30 10h1v1h-1zM5 11h1v1h-1zM6 11h1v1h-1zM7 11h1v1h-1zM8 11h1v1h-1zM9 11h1v1h-1zM10 11h1v1h-1zM11 11h1v1h-1zM12 11h1v1h-1zM13 11h1v1h-1zM14 11h1v1h-1zM15 11h1v1h-1zM16 11h1v1h-1zM17 11h1v1h-1zM18 11h1v1h-1zM19 11h1v1h-1zM20 11h1v1h-1zM21 11h1v1h-1zM27 11h1v1h-1zM28 11h1v1h-1zM29 11h1v1h-1zM30 11h1v1h-1zM4 12h1v1h-1zM5 12h1v1h-1zM6 12h1v1h-1zM7 12h1v1h-1zM8 12h1v1h-1zM9 12h1v1h-1zM10 12h1v1h-1zM11 12h1v1h-1zM12 12h1v1h-1zM13 12h1v1h-1zM14 12h1v1h-1zM15 12h1v1h-1zM16 12h1v1h-1zM17 12h1v1h-1zM18 12h1v1h-1zM19 12h1v1h-1zM20 12h1v1h-1zM21 12h1v1h-1zM22 12h1v1h-1zM26 12h1v1h-1zM27 12h1v1h-1zM28 12h1v1h-1zM29 12h1v1h-1zM30 12h1v1h-1zM4 13h1v1h-1zM5 13h1v1h-1zM6 13h1v1h-1zM8 13h1v1h-1zM9 13h1v1h-1zM10 13h1v1h-1zM11 13h1v1h-1zM12 13h1v1h-1zM13 13h1v1h-1zM15 13h1v1h-1zM16 13h1v1h-1zM17 13h1v1h-1zM18 13h1v1h-1zM19 13h1v1h-1zM20 13h1v1h-1zM21 13h1v1h-1zM22 13h1v1h-1zM23 13h1v1h-1zM24 13h1v1h-1zM25 13h1v1h-1zM26 13h1v1h-1zM27 13h1v1h-1zM28 13h1v1h-1zM29 13h1v1h-1zM4 14h1v1h-1zM5 14h1v1h-1zM6 14h1v1h-1zM8 14h1v1h-1zM9 14h1v1h-1zM10 14h1v1h-1zM11 14h1v1h-1zM12 14h1v1h-1zM13 14h1v1h-1zM15 14h1v1h-1zM16 14h1v1h-1zM17 14h1v1h-1zM18 14h1v1h-1zM19 14h1v1h-1zM20 14h1v1h-1zM21 14h1v1h-1zM22 14h1v1h-1zM23 14h1v1h-1zM24 14h1v1h-1zM25 14h1v1h-1zM26 14h1v1h-1zM27 14h1v1h-1zM28 14h1v1h-1zM29 14h1v1h-1zM4 15h1v1h-1zM5 15h1v1h-1zM6 15h1v1h-1zM7 15h1v1h-1zM8 15h1v1h-1zM9 15h1v1h-1zM10 15h1v1h-1zM11 15h1v1h-1zM12 15h1v1h-1zM13 15h1v1h-1zM14 15h1v1h-1zM15 15h1v1h-1zM16 15h1v1h-1zM17 15h1v1h-1zM18 15h1v1h-1zM19 15h1v1h-1zM20 15h1v1h-1zM21 15h1v1h-1zM22 15h1v1h-1zM23 15h1v1h-1zM24 15h1v1h-1zM25 15h1v1h-1zM26 15h1v1h-1zM27 15h1v1h-1zM28 15h1v1h-1zM4 16h1v1h-1zM5 16h1v1h-1zM6 16h1v1h-1zM7 16h1v1h-1zM15 16h1v1h-1zM16 16h1v1h-1zM17 16h1v1h-1zM18 16h1v1h-1zM19 16h1v1h-1zM20 16h1v1h-1zM21 16h1v1h-1zM22 16h1v1h-1zM24 16h1v1h-1zM25 16h1v1h-1zM26 16h1v1h-1zM27 16h1v1h-1zM28 16h1v1h-1zM5 17h1v1h-1zM18 17h1v1h-1zM19 17h1v1h-1zM20 17h1v1h-1zM21 17h1v1h-1zM22 17h1v1h-1zM23 17h1v1h-1zM25 17h1v1h-1zM26 17h1v1h-1zM27 17h1v1h-1zM20 18h1v1h-1zM21 18h1v1h-1zM22 18h1v1h-1zM23 18h1v1h-1zM26 18h1v1h-1zM20 19h1v1h-1zM21 19h1v1h-1zM22 19h1v1h-1zM23 19h1v1h-1zM24 19h1v1h-1zM21 20h1v1h-1zM22 20h1v1h-1zM23 20h1v1h-1zM24 20h1v1h-1zM25 20h1v1h-1zM22 21h1v1h-1zM23 21h1v1h-1zM24 21h1v1h-1zM25 21h1v1h-1zM26 21h1v1h-1zM27 21h1v1h-1z"/><path fill="#bee1ff" d="M5 18h1v1h-1zM6 18h1v1h-1zM6 19h1v1h-1zM7 19h1v1h-1zM8 19h1v1h-1zM8 20h1v1h-1zM9 20h1v1h-1zM10 20h1v1h-1zM17 20h1v1h-1zM18 20h1v1h-1zM19 20h1v1h-1zM9 21h1v1h-1zM10 21h1v1h-1zM11 21h1v1h-1zM12 21h1v1h-1zM13 21h1v1h-1zM14 21h1v1h-1zM15 21h1v1h-1zM16 21h1v1h-1zM17 21h1v1h-1zM18 21h1v1h-1zM19 21h1v1h-1z"/><path fill="#ffffff" d="M8 16h1v1h-1zM9 16h1v1h-1zM10 16h1v1h-1zM11 16h1v1h-1zM12 16h1v1h-1zM13 16h1v1h-1zM14 16h1v1h-1zM6 17h1v1h-1zM7 17h1v1h-1zM8 17h1v1h-1zM9 17h1v1h-1zM10 17h1v1h-1zM11 17h1v1h-1zM12 17h1v1h-1zM13 17h1v1h-1zM14 17h1v1h-1zM15 17h1v1h-1zM16 17h1v1h-1zM17 17h1v1h-1zM7 18h1v1h-1zM8 18h1v1h-1zM9 18h1v1h-1zM10 18h1v1h-1zM11 18h1v1h-1zM12 18h1v1h-1zM13 18h1v1h-1zM14 18h1v1h-1zM15 18h1v1h-1zM16 18h1v1h-1zM17 18h1v1h-1zM18 18h1v1h-1zM9 19h1v1h-1zM10 19h1v1h-1zM11 19h1v1h-1zM12 19h1v1h-1zM13 19h1v1h-1zM14 19h1v1h-1zM15 19h1v1h-1zM16 19h1v1h-1zM17 19h1v1h-1zM18 19h1v1h-1zM11 20h1v1h-1zM12 20h1v1h-1zM13 20h1v1h-1zM14 20h1v1h-1zM15 20h1v1h-1zM16 20h1v1h-1z"/></g><g class="pet pet-11" data-whale-frame="11" data-pose="tail2"><path fill="#142660" d="M27 2h1v1h-1zM26 3h1v1h-1zM28 3h1v1h-1zM36 3h1v1h-1zM26 4h1v1h-1zM29 4h1v1h-1zM35 4h1v1h-1zM37 4h1v1h-1zM26 5h1v1h-1zM29 5h1v1h-1zM34 5h1v1h-1zM37 5h1v1h-1zM26 6h1v1h-1zM30 6h1v1h-1zM32 6h1v1h-1zM33 6h1v1h-1zM37 6h1v1h-1zM7 7h1v1h-1zM8 7h1v1h-1zM9 7h1v1h-1zM10 7h1v1h-1zM11 7h1v1h-1zM12 7h1v1h-1zM13 7h1v1h-1zM14 7h1v1h-1zM15 7h1v1h-1zM26 7h1v1h-1zM31 7h1v1h-1zM36 7h1v1h-1zM6 8h1v1h-1zM16 8h1v1h-1zM17 8h1v1h-1zM27 8h1v1h-1zM36 8h1v1h-1zM5 9h1v1h-1zM18 9h1v1h-1zM19 9h1v1h-1zM27 9h1v1h-1zM35 9h1v1h-1zM4 10h1v1h-1zM20 10h1v1h-1zM21 10h1v1h-1zM28 10h1v1h-1zM34 10h1v1h-1zM3 11h1v1h-1zM4 11h1v1h-1zM22 11h1v1h-1zM25 11h1v1h-1zM26 11h1v1h-1zM27 11h1v1h-1zM32 11h1v1h-1zM33 11h1v1h-1zM3 12h1v1h-1zM23 12h1v1h-1zM24 12h1v1h-1zM32 12h1v1h-1zM3 13h1v1h-1zM7 13h1v1h-1zM14 13h1v1h-1zM31 13h1v1h-1zM3 14h1v1h-1zM7 14h1v1h-1zM14 14h1v1h-1zM30 14h1v1h-1zM3 15h1v1h-1zM30 15h1v1h-1zM3 16h1v1h-1zM23 16h1v1h-1zM29 16h1v1h-1zM3 17h1v1h-1zM4 17h1v1h-1zM24 17h1v1h-1zM28 17h1v1h-1zM4 18h1v1h-1zM19 18h1v1h-1zM24 18h1v1h-1zM25 18h1v1h-1zM27 18h1v1h-1zM5 19h1v1h-1zM19 19h1v1h-1zM25 19h1v1h-1zM26 19h1v1h-1zM6 20h1v1h-1zM7 20h1v1h-1zM20 20h1v1h-1zM26 20h1v1h-1zM27 20h1v1h-1zM8 21h1v1h-1zM20 21h1v1h-1zM21 21h1v1h-1zM28 21h1v1h-1zM9 22h1v1h-1zM10 22h1v1h-1zM11 22h1v1h-1zM12 22h1v1h-1zM13 22h1v1h-1zM14 22h1v1h-1zM15 22h1v1h-1zM16 22h1v1h-1zM17 22h1v1h-1zM18 22h1v1h-1zM19 22h1v1h-1zM22 22h1v1h-1zM23 22h1v1h-1zM24 22h1v1h-1zM25 22h1v1h-1zM26 22h1v1h-1zM27 22h1v1h-1zM28 22h1v1h-1z"/><path fill="#4e6fff" d="M27 3h1v1h-1zM27 4h1v1h-1zM28 4h1v1h-1zM36 4h1v1h-1zM27 5h1v1h-1zM28 5h1v1h-1zM35 5h1v1h-1zM36 5h1v1h-1zM27 6h1v1h-1zM28 6h1v1h-1zM29 6h1v1h-1zM34 6h1v1h-1zM35 6h1v1h-1zM36 6h1v1h-1zM27 7h1v1h-1zM28 7h1v1h-1zM29 7h1v1h-1zM30 7h1v1h-1zM32 7h1v1h-1zM33 7h1v1h-1zM34 7h1v1h-1zM35 7h1v1h-1zM7 8h1v1h-1zM8 8h1v1h-1zM9 8h1v1h-1zM10 8h1v1h-1zM11 8h1v1h-1zM12 8h1v1h-1zM13 8h1v1h-1zM14 8h1v1h-1zM15 8h1v1h-1zM28 8h1v1h-1zM29 8h1v1h-1zM30 8h1v1h-1zM31 8h1v1h-1zM32 8h1v1h-1zM33 8h1v1h-1zM34 8h1v1h-1zM35 8h1v1h-1zM6 9h1v1h-1zM7 9h1v1h-1zM8 9h1v1h-1zM9 9h1v1h-1zM10 9h1v1h-1zM11 9h1v1h-1zM12 9h1v1h-1zM13 9h1v1h-1zM14 9h1v1h-1zM15 9h1v1h-1zM16 9h1v1h-1zM17 9h1v1h-1zM28 9h1v1h-1zM29 9h1v1h-1zM30 9h1v1h-1zM31 9h1v1h-1zM32 9h1v1h-1zM33 9h1v1h-1zM34 9h1v1h-1zM5 10h1v1h-1zM6 10h1v1h-1zM7 10h1v1h-1zM8 10h1v1h-1zM9 10h1v1h-1zM10 10h1v1h-1zM11 10h1v1h-1zM12 10h1v1h-1zM13 10h1v1h-1zM14 10h1v1h-1zM15 10h1v1h-1zM16 10h1v1h-1zM17 10h1v1h-1zM18 10h1v1h-1zM19 10h1v1h-1zM29 10h1v1h-1zM30 10h1v1h-1zM31 10h1v1h-1zM32 10h1v1h-1zM33 10h1v1h-1zM5 11h1v1h-1zM6 11h1v1h-1zM7 11h1v1h-1zM8 11h1v1h-1zM9 11h1v1h-1zM10 11h1v1h-1zM11 11h1v1h-1zM12 11h1v1h-1zM13 11h1v1h-1zM14 11h1v1h-1zM15 11h1v1h-1zM16 11h1v1h-1zM17 11h1v1h-1zM18 11h1v1h-1zM19 11h1v1h-1zM20 11h1v1h-1zM21 11h1v1h-1zM28 11h1v1h-1zM29 11h1v1h-1zM30 11h1v1h-1zM31 11h1v1h-1zM4 12h1v1h-1zM5 12h1v1h-1zM6 12h1v1h-1zM7 12h1v1h-1zM8 12h1v1h-1zM9 12h1v1h-1zM10 12h1v1h-1zM11 12h1v1h-1zM12 12h1v1h-1zM13 12h1v1h-1zM14 12h1v1h-1zM15 12h1v1h-1zM16 12h1v1h-1zM17 12h1v1h-1zM18 12h1v1h-1zM19 12h1v1h-1zM20 12h1v1h-1zM21 12h1v1h-1zM22 12h1v1h-1zM25 12h1v1h-1zM26 12h1v1h-1zM27 12h1v1h-1zM28 12h1v1h-1zM29 12h1v1h-1zM30 12h1v1h-1zM31 12h1v1h-1zM4 13h1v1h-1zM5 13h1v1h-1zM6 13h1v1h-1zM8 13h1v1h-1zM9 13h1v1h-1zM10 13h1v1h-1zM11 13h1v1h-1zM12 13h1v1h-1zM13 13h1v1h-1zM15 13h1v1h-1zM16 13h1v1h-1zM17 13h1v1h-1zM18 13h1v1h-1zM19 13h1v1h-1zM20 13h1v1h-1zM21 13h1v1h-1zM22 13h1v1h-1zM23 13h1v1h-1zM24 13h1v1h-1zM25 13h1v1h-1zM26 13h1v1h-1zM27 13h1v1h-1zM28 13h1v1h-1zM29 13h1v1h-1zM30 13h1v1h-1zM4 14h1v1h-1zM5 14h1v1h-1zM6 14h1v1h-1zM8 14h1v1h-1zM9 14h1v1h-1zM10 14h1v1h-1zM11 14h1v1h-1zM12 14h1v1h-1zM13 14h1v1h-1zM15 14h1v1h-1zM16 14h1v1h-1zM17 14h1v1h-1zM18 14h1v1h-1zM19 14h1v1h-1zM20 14h1v1h-1zM21 14h1v1h-1zM22 14h1v1h-1zM23 14h1v1h-1zM24 14h1v1h-1zM25 14h1v1h-1zM26 14h1v1h-1zM27 14h1v1h-1zM28 14h1v1h-1zM29 14h1v1h-1zM4 15h1v1h-1zM5 15h1v1h-1zM6 15h1v1h-1zM7 15h1v1h-1zM8 15h1v1h-1zM9 15h1v1h-1zM10 15h1v1h-1zM11 15h1v1h-1zM12 15h1v1h-1zM13 15h1v1h-1zM14 15h1v1h-1zM15 15h1v1h-1zM16 15h1v1h-1zM17 15h1v1h-1zM18 15h1v1h-1zM19 15h1v1h-1zM20 15h1v1h-1zM21 15h1v1h-1zM22 15h1v1h-1zM23 15h1v1h-1zM24 15h1v1h-1zM25 15h1v1h-1zM26 15h1v1h-1zM27 15h1v1h-1zM28 15h1v1h-1zM29 15h1v1h-1zM4 16h1v1h-1zM5 16h1v1h-1zM6 16h1v1h-1zM7 16h1v1h-1zM15 16h1v1h-1zM16 16h1v1h-1zM17 16h1v1h-1zM18 16h1v1h-1zM19 16h1v1h-1zM20 16h1v1h-1zM21 16h1v1h-1zM22 16h1v1h-1zM24 16h1v1h-1zM25 16h1v1h-1zM26 16h1v1h-1zM27 16h1v1h-1zM28 16h1v1h-1zM5 17h1v1h-1zM18 17h1v1h-1zM19 17h1v1h-1zM20 17h1v1h-1zM21 17h1v1h-1zM22 17h1v1h-1zM23 17h1v1h-1zM25 17h1v1h-1zM26 17h1v1h-1zM27 17h1v1h-1zM20 18h1v1h-1zM21 18h1v1h-1zM22 18h1v1h-1zM23 18h1v1h-1zM26 18h1v1h-1zM20 19h1v1h-1zM21 19h1v1h-1zM22 19h1v1h-1zM23 19h1v1h-1zM24 19h1v1h-1zM21 20h1v1h-1zM22 20h1v1h-1zM23 20h1v1h-1zM24 20h1v1h-1zM25 20h1v1h-1zM22 21h1v1h-1zM23 21h1v1h-1zM24 21h1v1h-1zM25 21h1v1h-1zM26 21h1v1h-1zM27 21h1v1h-1z"/><path fill="#bee1ff" d="M5 18h1v1h-1zM6 18h1v1h-1zM6 19h1v1h-1zM7 19h1v1h-1zM8 19h1v1h-1zM8 20h1v1h-1zM9 20h1v1h-1zM10 20h1v1h-1zM17 20h1v1h-1zM18 20h1v1h-1zM19 20h1v1h-1zM9 21h1v1h-1zM10 21h1v1h-1zM11 21h1v1h-1zM12 21h1v1h-1zM13 21h1v1h-1zM14 21h1v1h-1zM15 21h1v1h-1zM16 21h1v1h-1zM17 21h1v1h-1zM18 21h1v1h-1zM19 21h1v1h-1z"/><path fill="#ffffff" d="M8 16h1v1h-1zM9 16h1v1h-1zM10 16h1v1h-1zM11 16h1v1h-1zM12 16h1v1h-1zM13 16h1v1h-1zM14 16h1v1h-1zM6 17h1v1h-1zM7 17h1v1h-1zM8 17h1v1h-1zM9 17h1v1h-1zM10 17h1v1h-1zM11 17h1v1h-1zM12 17h1v1h-1zM13 17h1v1h-1zM14 17h1v1h-1zM15 17h1v1h-1zM16 17h1v1h-1zM17 17h1v1h-1zM7 18h1v1h-1zM8 18h1v1h-1zM9 18h1v1h-1zM10 18h1v1h-1zM11 18h1v1h-1zM12 18h1v1h-1zM13 18h1v1h-1zM14 18h1v1h-1zM15 18h1v1h-1zM16 18h1v1h-1zM17 18h1v1h-1zM18 18h1v1h-1zM9 19h1v1h-1zM10 19h1v1h-1zM11 19h1v1h-1zM12 19h1v1h-1zM13 19h1v1h-1zM14 19h1v1h-1zM15 19h1v1h-1zM16 19h1v1h-1zM17 19h1v1h-1zM18 19h1v1h-1zM11 20h1v1h-1zM12 20h1v1h-1zM13 20h1v1h-1zM14 20h1v1h-1zM15 20h1v1h-1zM16 20h1v1h-1z"/></g><g class="pet pet-12" data-whale-frame="12" data-pose="tail3"><path fill="#142660" d="M29 3h1v1h-1zM28 4h1v1h-1zM30 4h1v1h-1zM28 5h1v1h-1zM30 5h1v1h-1zM27 6h1v1h-1zM30 6h1v1h-1zM36 6h1v1h-1zM37 6h1v1h-1zM7 7h1v1h-1zM8 7h1v1h-1zM9 7h1v1h-1zM10 7h1v1h-1zM11 7h1v1h-1zM12 7h1v1h-1zM13 7h1v1h-1zM14 7h1v1h-1zM15 7h1v1h-1zM27 7h1v1h-1zM31 7h1v1h-1zM35 7h1v1h-1zM38 7h1v1h-1zM6 8h1v1h-1zM16 8h1v1h-1zM17 8h1v1h-1zM27 8h1v1h-1zM31 8h1v1h-1zM33 8h1v1h-1zM34 8h1v1h-1zM37 8h1v1h-1zM5 9h1v1h-1zM18 9h1v1h-1zM19 9h1v1h-1zM27 9h1v1h-1zM32 9h1v1h-1zM37 9h1v1h-1zM4 10h1v1h-1zM20 10h1v1h-1zM21 10h1v1h-1zM28 10h1v1h-1zM36 10h1v1h-1zM3 11h1v1h-1zM4 11h1v1h-1zM22 11h1v1h-1zM26 11h1v1h-1zM27 11h1v1h-1zM35 11h1v1h-1zM3 12h1v1h-1zM23 12h1v1h-1zM24 12h1v1h-1zM25 12h1v1h-1zM34 12h1v1h-1zM3 13h1v1h-1zM7 13h1v1h-1zM14 13h1v1h-1zM32 13h1v1h-1zM33 13h1v1h-1zM3 14h1v1h-1zM7 14h1v1h-1zM14 14h1v1h-1zM31 14h1v1h-1zM3 15h1v1h-1zM31 15h1v1h-1zM3 16h1v1h-1zM23 16h1v1h-1zM30 16h1v1h-1zM3 17h1v1h-1zM4 17h1v1h-1zM24 17h1v1h-1zM28 17h1v1h-1zM29 17h1v1h-1zM4 18h1v1h-1zM19 18h1v1h-1zM24 18h1v1h-1zM25 18h1v1h-1zM27 18h1v1h-1zM28 18h1v1h-1zM5 19h1v1h-1zM19 19h1v1h-1zM25 19h1v1h-1zM26 19h1v1h-1zM6 20h1v1h-1zM7 20h1v1h-1zM20 20h1v1h-1zM26 20h1v1h-1zM27 20h1v1h-1zM8 21h1v1h-1zM20 21h1v1h-1zM21 21h1v1h-1zM28 21h1v1h-1zM9 22h1v1h-1zM10 22h1v1h-1zM11 22h1v1h-1zM12 22h1v1h-1zM13 22h1v1h-1zM14 22h1v1h-1zM15 22h1v1h-1zM16 22h1v1h-1zM17 22h1v1h-1zM18 22h1v1h-1zM19 22h1v1h-1zM22 22h1v1h-1zM23 22h1v1h-1zM24 22h1v1h-1zM25 22h1v1h-1zM26 22h1v1h-1zM27 22h1v1h-1zM28 22h1v1h-1z"/><path fill="#4e6fff" d="M29 4h1v1h-1zM29 5h1v1h-1zM28 6h1v1h-1zM29 6h1v1h-1zM28 7h1v1h-1zM29 7h1v1h-1zM30 7h1v1h-1zM36 7h1v1h-1zM37 7h1v1h-1zM7 8h1v1h-1zM8 8h1v1h-1zM9 8h1v1h-1zM10 8h1v1h-1zM11 8h1v1h-1zM12 8h1v1h-1zM13 8h1v1h-1zM14 8h1v1h-1zM15 8h1v1h-1zM28 8h1v1h-1zM29 8h1v1h-1zM30 8h1v1h-1zM35 8h1v1h-1zM36 8h1v1h-1zM6 9h1v1h-1zM7 9h1v1h-1zM8 9h1v1h-1zM9 9h1v1h-1zM10 9h1v1h-1zM11 9h1v1h-1zM12 9h1v1h-1zM13 9h1v1h-1zM14 9h1v1h-1zM15 9h1v1h-1zM16 9h1v1h-1zM17 9h1v1h-1zM28 9h1v1h-1zM29 9h1v1h-1zM30 9h1v1h-1zM31 9h1v1h-1zM33 9h1v1h-1zM34 9h1v1h-1zM35 9h1v1h-1zM36 9h1v1h-1zM5 10h1v1h-1zM6 10h1v1h-1zM7 10h1v1h-1zM8 10h1v1h-1zM9 10h1v1h-1zM10 10h1v1h-1zM11 10h1v1h-1zM12 10h1v1h-1zM13 10h1v1h-1zM14 10h1v1h-1zM15 10h1v1h-1zM16 10h1v1h-1zM17 10h1v1h-1zM18 10h1v1h-1zM19 10h1v1h-1zM29 10h1v1h-1zM30 10h1v1h-1zM31 10h1v1h-1zM32 10h1v1h-1zM33 10h1v1h-1zM34 10h1v1h-1zM35 10h1v1h-1zM5 11h1v1h-1zM6 11h1v1h-1zM7 11h1v1h-1zM8 11h1v1h-1zM9 11h1v1h-1zM10 11h1v1h-1zM11 11h1v1h-1zM12 11h1v1h-1zM13 11h1v1h-1zM14 11h1v1h-1zM15 11h1v1h-1zM16 11h1v1h-1zM17 11h1v1h-1zM18 11h1v1h-1zM19 11h1v1h-1zM20 11h1v1h-1zM21 11h1v1h-1zM28 11h1v1h-1zM29 11h1v1h-1zM30 11h1v1h-1zM31 11h1v1h-1zM32 11h1v1h-1zM33 11h1v1h-1zM34 11h1v1h-1zM4 12h1v1h-1zM5 12h1v1h-1zM6 12h1v1h-1zM7 12h1v1h-1zM8 12h1v1h-1zM9 12h1v1h-1zM10 12h1v1h-1zM11 12h1v1h-1zM12 12h1v1h-1zM13 12h1v1h-1zM14 12h1v1h-1zM15 12h1v1h-1zM16 12h1v1h-1zM17 12h1v1h-1zM18 12h1v1h-1zM19 12h1v1h-1zM20 12h1v1h-1zM21 12h1v1h-1zM22 12h1v1h-1zM26 12h1v1h-1zM27 12h1v1h-1zM28 12h1v1h-1zM29 12h1v1h-1zM30 12h1v1h-1zM31 12h1v1h-1zM32 12h1v1h-1zM33 12h1v1h-1zM4 13h1v1h-1zM5 13h1v1h-1zM6 13h1v1h-1zM8 13h1v1h-1zM9 13h1v1h-1zM10 13h1v1h-1zM11 13h1v1h-1zM12 13h1v1h-1zM13 13h1v1h-1zM15 13h1v1h-1zM16 13h1v1h-1zM17 13h1v1h-1zM18 13h1v1h-1zM19 13h1v1h-1zM20 13h1v1h-1zM21 13h1v1h-1zM22 13h1v1h-1zM23 13h1v1h-1zM24 13h1v1h-1zM25 13h1v1h-1zM26 13h1v1h-1zM27 13h1v1h-1zM28 13h1v1h-1zM29 13h1v1h-1zM30 13h1v1h-1zM31 13h1v1h-1zM4 14h1v1h-1zM5 14h1v1h-1zM6 14h1v1h-1zM8 14h1v1h-1zM9 14h1v1h-1zM10 14h1v1h-1zM11 14h1v1h-1zM12 14h1v1h-1zM13 14h1v1h-1zM15 14h1v1h-1zM16 14h1v1h-1zM17 14h1v1h-1zM18 14h1v1h-1zM19 14h1v1h-1zM20 14h1v1h-1zM21 14h1v1h-1zM22 14h1v1h-1zM23 14h1v1h-1zM24 14h1v1h-1zM25 14h1v1h-1zM26 14h1v1h-1zM27 14h1v1h-1zM28 14h1v1h-1zM29 14h1v1h-1zM30 14h1v1h-1zM4 15h1v1h-1zM5 15h1v1h-1zM6 15h1v1h-1zM7 15h1v1h-1zM8 15h1v1h-1zM9 15h1v1h-1zM10 15h1v1h-1zM11 15h1v1h-1zM12 15h1v1h-1zM13 15h1v1h-1zM14 15h1v1h-1zM15 15h1v1h-1zM16 15h1v1h-1zM17 15h1v1h-1zM18 15h1v1h-1zM19 15h1v1h-1zM20 15h1v1h-1zM21 15h1v1h-1zM22 15h1v1h-1zM23 15h1v1h-1zM24 15h1v1h-1zM25 15h1v1h-1zM26 15h1v1h-1zM27 15h1v1h-1zM28 15h1v1h-1zM29 15h1v1h-1zM30 15h1v1h-1zM4 16h1v1h-1zM5 16h1v1h-1zM6 16h1v1h-1zM7 16h1v1h-1zM15 16h1v1h-1zM16 16h1v1h-1zM17 16h1v1h-1zM18 16h1v1h-1zM19 16h1v1h-1zM20 16h1v1h-1zM21 16h1v1h-1zM22 16h1v1h-1zM24 16h1v1h-1zM25 16h1v1h-1zM26 16h1v1h-1zM27 16h1v1h-1zM28 16h1v1h-1zM29 16h1v1h-1zM5 17h1v1h-1zM18 17h1v1h-1zM19 17h1v1h-1zM20 17h1v1h-1zM21 17h1v1h-1zM22 17h1v1h-1zM23 17h1v1h-1zM25 17h1v1h-1zM26 17h1v1h-1zM27 17h1v1h-1zM20 18h1v1h-1zM21 18h1v1h-1zM22 18h1v1h-1zM23 18h1v1h-1zM26 18h1v1h-1zM20 19h1v1h-1zM21 19h1v1h-1zM22 19h1v1h-1zM23 19h1v1h-1zM24 19h1v1h-1zM21 20h1v1h-1zM22 20h1v1h-1zM23 20h1v1h-1zM24 20h1v1h-1zM25 20h1v1h-1zM22 21h1v1h-1zM23 21h1v1h-1zM24 21h1v1h-1zM25 21h1v1h-1zM26 21h1v1h-1zM27 21h1v1h-1z"/><path fill="#bee1ff" d="M5 18h1v1h-1zM6 18h1v1h-1zM6 19h1v1h-1zM7 19h1v1h-1zM8 19h1v1h-1zM8 20h1v1h-1zM9 20h1v1h-1zM10 20h1v1h-1zM17 20h1v1h-1zM18 20h1v1h-1zM19 20h1v1h-1zM9 21h1v1h-1zM10 21h1v1h-1zM11 21h1v1h-1zM12 21h1v1h-1zM13 21h1v1h-1zM14 21h1v1h-1zM15 21h1v1h-1zM16 21h1v1h-1zM17 21h1v1h-1zM18 21h1v1h-1zM19 21h1v1h-1z"/><path fill="#ffffff" d="M8 16h1v1h-1zM9 16h1v1h-1zM10 16h1v1h-1zM11 16h1v1h-1zM12 16h1v1h-1zM13 16h1v1h-1zM14 16h1v1h-1zM6 17h1v1h-1zM7 17h1v1h-1zM8 17h1v1h-1zM9 17h1v1h-1zM10 17h1v1h-1zM11 17h1v1h-1zM12 17h1v1h-1zM13 17h1v1h-1zM14 17h1v1h-1zM15 17h1v1h-1zM16 17h1v1h-1zM17 17h1v1h-1zM7 18h1v1h-1zM8 18h1v1h-1zM9 18h1v1h-1zM10 18h1v1h-1zM11 18h1v1h-1zM12 18h1v1h-1zM13 18h1v1h-1zM14 18h1v1h-1zM15 18h1v1h-1zM16 18h1v1h-1zM17 18h1v1h-1zM18 18h1v1h-1zM9 19h1v1h-1zM10 19h1v1h-1zM11 19h1v1h-1zM12 19h1v1h-1zM13 19h1v1h-1zM14 19h1v1h-1zM15 19h1v1h-1zM16 19h1v1h-1zM17 19h1v1h-1zM18 19h1v1h-1zM11 20h1v1h-1zM12 20h1v1h-1zM13 20h1v1h-1zM14 20h1v1h-1zM15 20h1v1h-1zM16 20h1v1h-1z"/></g><g class="pet pet-13" data-whale-frame="13" data-pose="tail4"><path fill="#142660" d="M32 4h1v1h-1zM31 5h1v1h-1zM33 5h1v1h-1zM30 6h1v1h-1zM33 6h1v1h-1zM7 7h1v1h-1zM8 7h1v1h-1zM9 7h1v1h-1zM10 7h1v1h-1zM11 7h1v1h-1zM12 7h1v1h-1zM13 7h1v1h-1zM14 7h1v1h-1zM15 7h1v1h-1zM30 7h1v1h-1zM33 7h1v1h-1zM6 8h1v1h-1zM16 8h1v1h-1zM17 8h1v1h-1zM29 8h1v1h-1zM33 8h1v1h-1zM5 9h1v1h-1zM18 9h1v1h-1zM19 9h1v1h-1zM29 9h1v1h-1zM33 9h1v1h-1zM38 9h1v1h-1zM4 10h1v1h-1zM20 10h1v1h-1zM21 10h1v1h-1zM29 10h1v1h-1zM34 10h1v1h-1zM35 10h1v1h-1zM36 10h1v1h-1zM37 10h1v1h-1zM39 10h1v1h-1zM3 11h1v1h-1zM4 11h1v1h-1zM22 11h1v1h-1zM28 11h1v1h-1zM39 11h1v1h-1zM3 12h1v1h-1zM23 12h1v1h-1zM24 12h1v1h-1zM25 12h1v1h-1zM26 12h1v1h-1zM27 12h1v1h-1zM38 12h1v1h-1zM3 13h1v1h-1zM7 13h1v1h-1zM14 13h1v1h-1zM37 13h1v1h-1zM3 14h1v1h-1zM7 14h1v1h-1zM14 14h1v1h-1zM33 14h1v1h-1zM34 14h1v1h-1zM35 14h1v1h-1zM36 14h1v1h-1zM3 15h1v1h-1zM32 15h1v1h-1zM3 16h1v1h-1zM23 16h1v1h-1zM31 16h1v1h-1zM3 17h1v1h-1zM4 17h1v1h-1zM24 17h1v1h-1zM30 17h1v1h-1zM4 18h1v1h-1zM19 18h1v1h-1zM24 18h1v1h-1zM25 18h1v1h-1zM27 18h1v1h-1zM28 18h1v1h-1zM29 18h1v1h-1zM5 19h1v1h-1zM19 19h1v1h-1zM25 19h1v1h-1zM26 19h1v1h-1zM6 20h1v1h-1zM7 20h1v1h-1zM20 20h1v1h-1zM26 20h1v1h-1zM27 20h1v1h-1zM8 21h1v1h-1zM20 21h1v1h-1zM21 21h1v1h-1zM28 21h1v1h-1zM9 22h1v1h-1zM10 22h1v1h-1zM11 22h1v1h-1zM12 22h1v1h-1zM13 22h1v1h-1zM14 22h1v1h-1zM15 22h1v1h-1zM16 22h1v1h-1zM17 22h1v1h-1zM18 22h1v1h-1zM19 22h1v1h-1zM22 22h1v1h-1zM23 22h1v1h-1zM24 22h1v1h-1zM25 22h1v1h-1zM26 22h1v1h-1zM27 22h1v1h-1zM28 22h1v1h-1z"/><path fill="#4e6fff" d="M32 5h1v1h-1zM31 6h1v1h-1zM32 6h1v1h-1zM31 7h1v1h-1zM32 7h1v1h-1zM7 8h1v1h-1zM8 8h1v1h-1zM9 8h1v1h-1zM10 8h1v1h-1zM11 8h1v1h-1zM12 8h1v1h-1zM13 8h1v1h-1zM14 8h1v1h-1zM15 8h1v1h-1zM30 8h1v1h-1zM31 8h1v1h-1zM32 8h1v1h-1zM6 9h1v1h-1zM7 9h1v1h-1zM8 9h1v1h-1zM9 9h1v1h-1zM10 9h1v1h-1zM11 9h1v1h-1zM12 9h1v1h-1zM13 9h1v1h-1zM14 9h1v1h-1zM15 9h1v1h-1zM16 9h1v1h-1zM17 9h1v1h-1zM30 9h1v1h-1zM31 9h1v1h-1zM32 9h1v1h-1zM5 10h1v1h-1zM6 10h1v1h-1zM7 10h1v1h-1zM8 10h1v1h-1zM9 10h1v1h-1zM10 10h1v1h-1zM11 10h1v1h-1zM12 10h1v1h-1zM13 10h1v1h-1zM14 10h1v1h-1zM15 10h1v1h-1zM16 10h1v1h-1zM17 10h1v1h-1zM18 10h1v1h-1zM19 10h1v1h-1zM30 10h1v1h-1zM31 10h1v1h-1zM32 10h1v1h-1zM33 10h1v1h-1zM38 10h1v1h-1zM5 11h1v1h-1zM6 11h1v1h-1zM7 11h1v1h-1zM8 11h1v1h-1zM9 11h1v1h-1zM10 11h1v1h-1zM11 11h1v1h-1zM12 11h1v1h-1zM13 11h1v1h-1zM14 11h1v1h-1zM15 11h1v1h-1zM16 11h1v1h-1zM17 11h1v1h-1zM18 11h1v1h-1zM19 11h1v1h-1zM20 11h1v1h-1zM21 11h1v1h-1zM29 11h1v1h-1zM30 11h1v1h-1zM31 11h1v1h-1zM32 11h1v1h-1zM33 11h1v1h-1zM34 11h1v1h-1zM35 11h1v1h-1zM36 11h1v1h-1zM37 11h1v1h-1zM38 11h1v1h-1zM4 12h1v1h-1zM5 12h1v1h-1zM6 12h1v1h-1zM7 12h1v1h-1zM8 12h1v1h-1zM9 12h1v1h-1zM10 12h1v1h-1zM11 12h1v1h-1zM12 12h1v1h-1zM13 12h1v1h-1zM14 12h1v1h-1zM15 12h1v1h-1zM16 12h1v1h-1zM17 12h1v1h-1zM18 12h1v1h-1zM19 12h1v1h-1zM20 12h1v1h-1zM21 12h1v1h-1zM22 12h1v1h-1zM28 12h1v1h-1zM29 12h1v1h-1zM30 12h1v1h-1zM31 12h1v1h-1zM32 12h1v1h-1zM33 12h1v1h-1zM34 12h1v1h-1zM35 12h1v1h-1zM36 12h1v1h-1zM37 12h1v1h-1zM4 13h1v1h-1zM5 13h1v1h-1zM6 13h1v1h-1zM8 13h1v1h-1zM9 13h1v1h-1zM10 13h1v1h-1zM11 13h1v1h-1zM12 13h1v1h-1zM13 13h1v1h-1zM15 13h1v1h-1zM16 13h1v1h-1zM17 13h1v1h-1zM18 13h1v1h-1zM19 13h1v1h-1zM20 13h1v1h-1zM21 13h1v1h-1zM22 13h1v1h-1zM23 13h1v1h-1zM24 13h1v1h-1zM25 13h1v1h-1zM26 13h1v1h-1zM27 13h1v1h-1zM28 13h1v1h-1zM29 13h1v1h-1zM30 13h1v1h-1zM31 13h1v1h-1zM32 13h1v1h-1zM33 13h1v1h-1zM34 13h1v1h-1zM35 13h1v1h-1zM36 13h1v1h-1zM4 14h1v1h-1zM5 14h1v1h-1zM6 14h1v1h-1zM8 14h1v1h-1zM9 14h1v1h-1zM10 14h1v1h-1zM11 14h1v1h-1zM12 14h1v1h-1zM13 14h1v1h-1zM15 14h1v1h-1zM16 14h1v1h-1zM17 14h1v1h-1zM18 14h1v1h-1zM19 14h1v1h-1zM20 14h1v1h-1zM21 14h1v1h-1zM22 14h1v1h-1zM23 14h1v1h-1zM24 14h1v1h-1zM25 14h1v1h-1zM26 14h1v1h-1zM27 14h1v1h-1zM28 14h1v1h-1zM29 14h1v1h-1zM30 14h1v1h-1zM31 14h1v1h-1zM32 14h1v1h-1zM4 15h1v1h-1zM5 15h1v1h-1zM6 15h1v1h-1zM7 15h1v1h-1zM8 15h1v1h-1zM9 15h1v1h-1zM10 15h1v1h-1zM11 15h1v1h-1zM12 15h1v1h-1zM13 15h1v1h-1zM14 15h1v1h-1zM15 15h1v1h-1zM16 15h1v1h-1zM17 15h1v1h-1zM18 15h1v1h-1zM19 15h1v1h-1zM20 15h1v1h-1zM21 15h1v1h-1zM22 15h1v1h-1zM23 15h1v1h-1zM24 15h1v1h-1zM25 15h1v1h-1zM26 15h1v1h-1zM27 15h1v1h-1zM28 15h1v1h-1zM29 15h1v1h-1zM30 15h1v1h-1zM31 15h1v1h-1zM4 16h1v1h-1zM5 16h1v1h-1zM6 16h1v1h-1zM7 16h1v1h-1zM15 16h1v1h-1zM16 16h1v1h-1zM17 16h1v1h-1zM18 16h1v1h-1zM19 16h1v1h-1zM20 16h1v1h-1zM21 16h1v1h-1zM22 16h1v1h-1zM24 16h1v1h-1zM25 16h1v1h-1zM26 16h1v1h-1zM27 16h1v1h-1zM28 16h1v1h-1zM29 16h1v1h-1zM30 16h1v1h-1zM5 17h1v1h-1zM18 17h1v1h-1zM19 17h1v1h-1zM20 17h1v1h-1zM21 17h1v1h-1zM22 17h1v1h-1zM23 17h1v1h-1zM25 17h1v1h-1zM26 17h1v1h-1zM27 17h1v1h-1zM28 17h1v1h-1zM29 17h1v1h-1zM20 18h1v1h-1zM21 18h1v1h-1zM22 18h1v1h-1zM23 18h1v1h-1zM26 18h1v1h-1zM20 19h1v1h-1zM21 19h1v1h-1zM22 19h1v1h-1zM23 19h1v1h-1zM24 19h1v1h-1zM21 20h1v1h-1zM22 20h1v1h-1zM23 20h1v1h-1zM24 20h1v1h-1zM25 20h1v1h-1zM22 21h1v1h-1zM23 21h1v1h-1zM24 21h1v1h-1zM25 21h1v1h-1zM26 21h1v1h-1zM27 21h1v1h-1z"/><path fill="#bee1ff" d="M5 18h1v1h-1zM6 18h1v1h-1zM6 19h1v1h-1zM7 19h1v1h-1zM8 19h1v1h-1zM8 20h1v1h-1zM9 20h1v1h-1zM10 20h1v1h-1zM17 20h1v1h-1zM18 20h1v1h-1zM19 20h1v1h-1zM9 21h1v1h-1zM10 21h1v1h-1zM11 21h1v1h-1zM12 21h1v1h-1zM13 21h1v1h-1zM14 21h1v1h-1zM15 21h1v1h-1zM16 21h1v1h-1zM17 21h1v1h-1zM18 21h1v1h-1zM19 21h1v1h-1z"/><path fill="#ffffff" d="M8 16h1v1h-1zM9 16h1v1h-1zM10 16h1v1h-1zM11 16h1v1h-1zM12 16h1v1h-1zM13 16h1v1h-1zM14 16h1v1h-1zM6 17h1v1h-1zM7 17h1v1h-1zM8 17h1v1h-1zM9 17h1v1h-1zM10 17h1v1h-1zM11 17h1v1h-1zM12 17h1v1h-1zM13 17h1v1h-1zM14 17h1v1h-1zM15 17h1v1h-1zM16 17h1v1h-1zM17 17h1v1h-1zM7 18h1v1h-1zM8 18h1v1h-1zM9 18h1v1h-1zM10 18h1v1h-1zM11 18h1v1h-1zM12 18h1v1h-1zM13 18h1v1h-1zM14 18h1v1h-1zM15 18h1v1h-1zM16 18h1v1h-1zM17 18h1v1h-1zM18 18h1v1h-1zM9 19h1v1h-1zM10 19h1v1h-1zM11 19h1v1h-1zM12 19h1v1h-1zM13 19h1v1h-1zM14 19h1v1h-1zM15 19h1v1h-1zM16 19h1v1h-1zM17 19h1v1h-1zM18 19h1v1h-1zM11 20h1v1h-1zM12 20h1v1h-1zM13 20h1v1h-1zM14 20h1v1h-1zM15 20h1v1h-1zM16 20h1v1h-1z"/></g></g>
<text x="112" y="39" font-size="26" class="strong">dsh-TUI</text>
<text x="112" y="66" font-size="16" class="muted">DeepSeek Harness</text>

<circle cx="21" cy="86" r="3" fill="var(--green)"/>
<text x="33" y="91" font-size="16" class="muted">deepseek-flash · Max effort</text>
<path class="rule" d="M18 104H342"/>
<rect x="18" y="472" width="324" height="40" rx="5" fill="var(--field)" stroke="var(--line)"/>
<g class="scene scene-0" data-scene="welcome" data-index="0"><text x="18" y="128" font-size="22" class="strong">Welcome to dsh-TUI</text><text x="18" y="162" font-size="19" class="accent strong">Explore the uncharted!</text><text x="18" y="198" font-size="19" class="">Tip: In /tree, type in the</text><text x="18" y="225" font-size="19" class="">search box to filter branches.</text><text x="18" y="260" font-size="16" class="accent">/tips</text><text x="18" y="292" font-size="17" class="strong">Context loaded</text><text x="18" y="319" font-size="17" class="muted">System prompt: 18 sections</text><text x="18" y="346" font-size="17" class="muted">Runtime context: 2 items</text><text x="18" y="373" font-size="17" class="muted">Tools: 27 · Ctrl+P to expand</text><text x="33" y="499" font-size="24" class="accent strong">›</text><text x="58" y="498" font-size="19" class=""></text></g>
<g class="scene scene-1" data-scene="completion" data-index="1"><text x="18" y="128" font-size="20" class="strong">Commands</text><text x="18" y="163" font-size="19" class="accent">/new</text><text x="130" y="163" font-size="19" class="">Start a new</text><text x="130" y="190" font-size="19" class="">conversation</text><text x="18" y="226" font-size="19" class="accent">/clear</text><text x="130" y="226" font-size="19" class="">Clear the</text><text x="130" y="253" font-size="19" class="">conversation</text><text x="18" y="289" font-size="19" class="accent">/compact</text><text x="130" y="289" font-size="19" class="">Summarize earlier</text><text x="130" y="316" font-size="19" class="">turns to free</text><text x="130" y="343" font-size="19" class="">context space</text><text x="18" y="379" font-size="19" class="accent">/resume</text><text x="130" y="379" font-size="19" class="">Continue a saved</text><text x="130" y="406" font-size="19" class="">session</text><text x="342" y="128" font-size="15" class="muted" text-anchor="end">60 items</text><text x="33" y="499" font-size="24" class="accent strong">›</text><text x="58" y="498" font-size="19" class="">/</text></g>
<g class="scene scene-2" data-scene="filter" data-index="2"><text x="18" y="128" font-size="20" class="strong">Commands</text><text x="18" y="175" font-size="19" class="accent">/help</text><text x="18" y="211" font-size="19" class="">Show shortcuts and commands</text><text x="342" y="128" font-size="15" class="muted" text-anchor="end">1 item</text><text x="33" y="499" font-size="24" class="accent strong">›</text><text x="58" y="498" font-size="19" class="">/h</text><rect class="cursor" x="79.892578125" y="480" width="2" height="23"/></g>
<g class="scene scene-3" data-scene="filter" data-index="3"><text x="18" y="128" font-size="20" class="strong">Commands</text><text x="18" y="175" font-size="19" class="accent">/help</text><text x="18" y="211" font-size="19" class="">Show shortcuts and commands</text><text x="342" y="128" font-size="15" class="muted" text-anchor="end">1 item</text><text x="33" y="499" font-size="24" class="accent strong">›</text><text x="58" y="498" font-size="19" class="">/he</text><rect class="cursor" x="90.3388671875" y="480" width="2" height="23"/></g>
<g class="scene scene-4" data-scene="filter" data-index="4"><text x="18" y="128" font-size="20" class="strong">Commands</text><text x="18" y="175" font-size="19" class="accent">/help</text><text x="18" y="211" font-size="19" class="">Show shortcuts and commands</text><text x="342" y="128" font-size="15" class="muted" text-anchor="end">1 item</text><text x="33" y="499" font-size="24" class="accent strong">›</text><text x="58" y="498" font-size="19" class="">/hel</text><rect class="cursor" x="100.78515625" y="480" width="2" height="23"/></g>
<g class="scene scene-5" data-scene="filter" data-index="5"><text x="18" y="128" font-size="20" class="strong">Commands</text><text x="18" y="175" font-size="19" class="accent">/help</text><text x="18" y="211" font-size="19" class="">Show shortcuts and commands</text><text x="342" y="128" font-size="15" class="muted" text-anchor="end">1 item</text><text x="33" y="499" font-size="24" class="accent strong">›</text><text x="58" y="498" font-size="19" class="">/help</text><rect class="cursor" x="111.2314453125" y="480" width="2" height="23"/></g>
<g class="scene scene-6" data-scene="shortcuts" data-index="6"><text x="18" y="128" font-size="20" class="strong">Shortcuts</text><text x="18" y="163" font-size="16" class="accent">/</text><text x="164" y="163" font-size="19" class="">Commands</text><text x="18" y="199" font-size="16" class="accent">?</text><text x="164" y="199" font-size="19" class="">This help</text><text x="18" y="235" font-size="16" class="accent">Ctrl+O</text><text x="164" y="235" font-size="19" class="">Verbose output</text><text x="18" y="271" font-size="16" class="accent">Ctrl+T</text><text x="164" y="271" font-size="19" class="">Open trajectory</text><text x="18" y="307" font-size="16" class="accent">Ctrl+R</text><text x="164" y="307" font-size="19" class="">Search history</text><text x="18" y="343" font-size="16" class="accent">Ctrl+C</text><text x="164" y="343" font-size="19" class="">Interrupt</text><text x="18" y="379" font-size="16" class="accent">Ctrl+D</text><text x="164" y="379" font-size="19" class="">Exit</text><text x="18" y="415" font-size="16" class="accent">Ctrl+L</text><text x="164" y="415" font-size="19" class="">Redraw</text><text x="33" y="499" font-size="24" class="accent strong">›</text><text x="58" y="498" font-size="19" class="">/help</text></g>
<g class="scene scene-7" data-scene="help" data-index="7"><text x="18" y="128" font-size="20" class="strong">Commands</text><text x="18" y="163" font-size="19" class="accent">/rename</text><text x="130" y="163" font-size="19" class="">Rename the current</text><text x="130" y="190" font-size="19" class="">session</text><text x="18" y="226" font-size="19" class="accent">/recap</text><text x="130" y="226" font-size="19" class="">Generate a recap of</text><text x="130" y="253" font-size="19" class="">recent session</text><text x="130" y="280" font-size="19" class="">activity</text><text x="18" y="316" font-size="19" class="accent">/rewind</text><text x="130" y="316" font-size="19" class="">Return the session</text><text x="130" y="343" font-size="19" class="">to an earlier</text><text x="130" y="370" font-size="19" class="">message</text><text x="33" y="499" font-size="24" class="accent strong">›</text><text x="58" y="498" font-size="19" class="">/help</text></g>
<g class="scene scene-8" data-scene="typing" data-index="8"><text x="18" y="128" font-size="22" class="strong">Welcome to dsh-TUI</text><text x="18" y="176" font-size="17" class="strong">Context loaded</text><text x="18" y="203" font-size="17" class="muted">System prompt: 18 sections</text><text x="18" y="230" font-size="17" class="muted">Runtime context: 2 items</text><text x="18" y="257" font-size="17" class="muted">Tools: 27 · Ctrl+P to expand</text><text x="33" y="499" font-size="24" class="accent strong">›</text><text x="58" y="498" font-size="19" class="">H</text><rect class="cursor" x="69.4462890625" y="480" width="2" height="23"/></g>
<g class="scene scene-9" data-scene="typing" data-index="9"><text x="18" y="128" font-size="22" class="strong">Welcome to dsh-TUI</text><text x="18" y="176" font-size="17" class="strong">Context loaded</text><text x="18" y="203" font-size="17" class="muted">System prompt: 18 sections</text><text x="18" y="230" font-size="17" class="muted">Runtime context: 2 items</text><text x="18" y="257" font-size="17" class="muted">Tools: 27 · Ctrl+P to expand</text><text x="33" y="499" font-size="24" class="accent strong">›</text><text x="58" y="498" font-size="19" class="">He</text><rect class="cursor" x="79.892578125" y="480" width="2" height="23"/></g>
<g class="scene scene-10" data-scene="typing" data-index="10"><text x="18" y="128" font-size="22" class="strong">Welcome to dsh-TUI</text><text x="18" y="176" font-size="17" class="strong">Context loaded</text><text x="18" y="203" font-size="17" class="muted">System prompt: 18 sections</text><text x="18" y="230" font-size="17" class="muted">Runtime context: 2 items</text><text x="18" y="257" font-size="17" class="muted">Tools: 27 · Ctrl+P to expand</text><text x="33" y="499" font-size="24" class="accent strong">›</text><text x="58" y="498" font-size="19" class="">Hel</text><rect class="cursor" x="90.3388671875" y="480" width="2" height="23"/></g>
<g class="scene scene-11" data-scene="typing" data-index="11"><text x="18" y="128" font-size="22" class="strong">Welcome to dsh-TUI</text><text x="18" y="176" font-size="17" class="strong">Context loaded</text><text x="18" y="203" font-size="17" class="muted">System prompt: 18 sections</text><text x="18" y="230" font-size="17" class="muted">Runtime context: 2 items</text><text x="18" y="257" font-size="17" class="muted">Tools: 27 · Ctrl+P to expand</text><text x="33" y="499" font-size="24" class="accent strong">›</text><text x="58" y="498" font-size="19" class="">Hell</text><rect class="cursor" x="100.78515625" y="480" width="2" height="23"/></g>
<g class="scene scene-12" data-scene="typing" data-index="12"><text x="18" y="128" font-size="22" class="strong">Welcome to dsh-TUI</text><text x="18" y="176" font-size="17" class="strong">Context loaded</text><text x="18" y="203" font-size="17" class="muted">System prompt: 18 sections</text><text x="18" y="230" font-size="17" class="muted">Runtime context: 2 items</text><text x="18" y="257" font-size="17" class="muted">Tools: 27 · Ctrl+P to expand</text><text x="33" y="499" font-size="24" class="accent strong">›</text><text x="58" y="498" font-size="19" class="">Hello</text><rect class="cursor" x="111.2314453125" y="480" width="2" height="23"/></g>
<g class="scene scene-13" data-scene="typing" data-index="13"><text x="18" y="128" font-size="22" class="strong">Welcome to dsh-TUI</text><text x="18" y="176" font-size="17" class="strong">Context loaded</text><text x="18" y="203" font-size="17" class="muted">System prompt: 18 sections</text><text x="18" y="230" font-size="17" class="muted">Runtime context: 2 items</text><text x="18" y="257" font-size="17" class="muted">Tools: 27 · Ctrl+P to expand</text><text x="33" y="499" font-size="24" class="accent strong">›</text><text x="58" y="498" font-size="19" class="">Hello,</text><rect class="cursor" x="121.677734375" y="480" width="2" height="23"/></g>
<g class="scene scene-14" data-scene="typing" data-index="14"><text x="18" y="128" font-size="22" class="strong">Welcome to dsh-TUI</text><text x="18" y="176" font-size="17" class="strong">Context loaded</text><text x="18" y="203" font-size="17" class="muted">System prompt: 18 sections</text><text x="18" y="230" font-size="17" class="muted">Runtime context: 2 items</text><text x="18" y="257" font-size="17" class="muted">Tools: 27 · Ctrl+P to expand</text><text x="33" y="499" font-size="24" class="accent strong">›</text><text x="58" y="498" font-size="19" class="">Hello, </text><rect class="cursor" x="132.1240234375" y="480" width="2" height="23"/></g>
<g class="scene scene-15" data-scene="typing" data-index="15"><text x="18" y="128" font-size="22" class="strong">Welcome to dsh-TUI</text><text x="18" y="176" font-size="17" class="strong">Context loaded</text><text x="18" y="203" font-size="17" class="muted">System prompt: 18 sections</text><text x="18" y="230" font-size="17" class="muted">Runtime context: 2 items</text><text x="18" y="257" font-size="17" class="muted">Tools: 27 · Ctrl+P to expand</text><text x="33" y="499" font-size="24" class="accent strong">›</text><text x="58" y="498" font-size="19" class="">Hello, l</text><rect class="cursor" x="142.5703125" y="480" width="2" height="23"/></g>
<g class="scene scene-16" data-scene="typing" data-index="16"><text x="18" y="128" font-size="22" class="strong">Welcome to dsh-TUI</text><text x="18" y="176" font-size="17" class="strong">Context loaded</text><text x="18" y="203" font-size="17" class="muted">System prompt: 18 sections</text><text x="18" y="230" font-size="17" class="muted">Runtime context: 2 items</text><text x="18" y="257" font-size="17" class="muted">Tools: 27 · Ctrl+P to expand</text><text x="33" y="499" font-size="24" class="accent strong">›</text><text x="58" y="498" font-size="19" class="">Hello, le</text><rect class="cursor" x="153.0166015625" y="480" width="2" height="23"/></g>
<g class="scene scene-17" data-scene="typing" data-index="17"><text x="18" y="128" font-size="22" class="strong">Welcome to dsh-TUI</text><text x="18" y="176" font-size="17" class="strong">Context loaded</text><text x="18" y="203" font-size="17" class="muted">System prompt: 18 sections</text><text x="18" y="230" font-size="17" class="muted">Runtime context: 2 items</text><text x="18" y="257" font-size="17" class="muted">Tools: 27 · Ctrl+P to expand</text><text x="33" y="499" font-size="24" class="accent strong">›</text><text x="58" y="498" font-size="19" class="">Hello, let</text><rect class="cursor" x="163.462890625" y="480" width="2" height="23"/></g>
<g class="scene scene-18" data-scene="typing" data-index="18"><text x="18" y="128" font-size="22" class="strong">Welcome to dsh-TUI</text><text x="18" y="176" font-size="17" class="strong">Context loaded</text><text x="18" y="203" font-size="17" class="muted">System prompt: 18 sections</text><text x="18" y="230" font-size="17" class="muted">Runtime context: 2 items</text><text x="18" y="257" font-size="17" class="muted">Tools: 27 · Ctrl+P to expand</text><text x="33" y="499" font-size="24" class="accent strong">›</text><text x="58" y="498" font-size="19" class="">Hello, let </text><rect class="cursor" x="173.9091796875" y="480" width="2" height="23"/></g>
<g class="scene scene-19" data-scene="typing" data-index="19"><text x="18" y="128" font-size="22" class="strong">Welcome to dsh-TUI</text><text x="18" y="176" font-size="17" class="strong">Context loaded</text><text x="18" y="203" font-size="17" class="muted">System prompt: 18 sections</text><text x="18" y="230" font-size="17" class="muted">Runtime context: 2 items</text><text x="18" y="257" font-size="17" class="muted">Tools: 27 · Ctrl+P to expand</text><text x="33" y="499" font-size="24" class="accent strong">›</text><text x="58" y="498" font-size="19" class="">Hello, let u</text><rect class="cursor" x="184.35546875" y="480" width="2" height="23"/></g>
<g class="scene scene-20" data-scene="typing" data-index="20"><text x="18" y="128" font-size="22" class="strong">Welcome to dsh-TUI</text><text x="18" y="176" font-size="17" class="strong">Context loaded</text><text x="18" y="203" font-size="17" class="muted">System prompt: 18 sections</text><text x="18" y="230" font-size="17" class="muted">Runtime context: 2 items</text><text x="18" y="257" font-size="17" class="muted">Tools: 27 · Ctrl+P to expand</text><text x="33" y="499" font-size="24" class="accent strong">›</text><text x="58" y="498" font-size="19" class="">Hello, let us</text><rect class="cursor" x="194.8017578125" y="480" width="2" height="23"/></g>
<g class="scene scene-21" data-scene="typing" data-index="21"><text x="18" y="128" font-size="22" class="strong">Welcome to dsh-TUI</text><text x="18" y="176" font-size="17" class="strong">Context loaded</text><text x="18" y="203" font-size="17" class="muted">System prompt: 18 sections</text><text x="18" y="230" font-size="17" class="muted">Runtime context: 2 items</text><text x="18" y="257" font-size="17" class="muted">Tools: 27 · Ctrl+P to expand</text><text x="33" y="499" font-size="24" class="accent strong">›</text><text x="58" y="498" font-size="19" class="">Hello, let us </text><rect class="cursor" x="205.248046875" y="480" width="2" height="23"/></g>
<g class="scene scene-22" data-scene="typing" data-index="22"><text x="18" y="128" font-size="22" class="strong">Welcome to dsh-TUI</text><text x="18" y="176" font-size="17" class="strong">Context loaded</text><text x="18" y="203" font-size="17" class="muted">System prompt: 18 sections</text><text x="18" y="230" font-size="17" class="muted">Runtime context: 2 items</text><text x="18" y="257" font-size="17" class="muted">Tools: 27 · Ctrl+P to expand</text><text x="33" y="499" font-size="24" class="accent strong">›</text><text x="58" y="498" font-size="19" class="">Hello, let us b</text><rect class="cursor" x="215.6943359375" y="480" width="2" height="23"/></g>
<g class="scene scene-23" data-scene="typing" data-index="23"><text x="18" y="128" font-size="22" class="strong">Welcome to dsh-TUI</text><text x="18" y="176" font-size="17" class="strong">Context loaded</text><text x="18" y="203" font-size="17" class="muted">System prompt: 18 sections</text><text x="18" y="230" font-size="17" class="muted">Runtime context: 2 items</text><text x="18" y="257" font-size="17" class="muted">Tools: 27 · Ctrl+P to expand</text><text x="33" y="499" font-size="24" class="accent strong">›</text><text x="58" y="498" font-size="19" class="">Hello, let us be</text><rect class="cursor" x="226.140625" y="480" width="2" height="23"/></g>
<g class="scene scene-24" data-scene="typing" data-index="24"><text x="18" y="128" font-size="22" class="strong">Welcome to dsh-TUI</text><text x="18" y="176" font-size="17" class="strong">Context loaded</text><text x="18" y="203" font-size="17" class="muted">System prompt: 18 sections</text><text x="18" y="230" font-size="17" class="muted">Runtime context: 2 items</text><text x="18" y="257" font-size="17" class="muted">Tools: 27 · Ctrl+P to expand</text><text x="33" y="499" font-size="24" class="accent strong">›</text><text x="58" y="498" font-size="19" class="">Hello, let us beg</text><rect class="cursor" x="236.5869140625" y="480" width="2" height="23"/></g>
<g class="scene scene-25" data-scene="typing" data-index="25"><text x="18" y="128" font-size="22" class="strong">Welcome to dsh-TUI</text><text x="18" y="176" font-size="17" class="strong">Context loaded</text><text x="18" y="203" font-size="17" class="muted">System prompt: 18 sections</text><text x="18" y="230" font-size="17" class="muted">Runtime context: 2 items</text><text x="18" y="257" font-size="17" class="muted">Tools: 27 · Ctrl+P to expand</text><text x="33" y="499" font-size="24" class="accent strong">›</text><text x="58" y="498" font-size="19" class="">Hello, let us begi</text><rect class="cursor" x="247.033203125" y="480" width="2" height="23"/></g>
<g class="scene scene-26" data-scene="typing" data-index="26"><text x="18" y="128" font-size="22" class="strong">Welcome to dsh-TUI</text><text x="18" y="176" font-size="17" class="strong">Context loaded</text><text x="18" y="203" font-size="17" class="muted">System prompt: 18 sections</text><text x="18" y="230" font-size="17" class="muted">Runtime context: 2 items</text><text x="18" y="257" font-size="17" class="muted">Tools: 27 · Ctrl+P to expand</text><text x="33" y="499" font-size="24" class="accent strong">›</text><text x="58" y="498" font-size="19" class="">Hello, let us begin</text><rect class="cursor" x="257.4794921875" y="480" width="2" height="23"/></g>
<g class="scene scene-27" data-scene="typed" data-index="27"><text x="18" y="128" font-size="22" class="strong">Welcome to dsh-TUI</text><text x="18" y="176" font-size="17" class="strong">Context loaded</text><text x="18" y="203" font-size="17" class="muted">System prompt: 18 sections</text><text x="18" y="230" font-size="17" class="muted">Runtime context: 2 items</text><text x="18" y="257" font-size="17" class="muted">Tools: 27 · Ctrl+P to expand</text><text x="33" y="499" font-size="24" class="accent strong">›</text><text x="58" y="498" font-size="19" class="">Hello, let us begin</text><rect class="cursor" x="257.4794921875" y="480" width="2" height="23"/></g>
<text x="18" y="538" font-size="16" class="muted">v0.10.2 · welcome</text>
</svg>